{
	"patcher" : 	{
		"fileversion" : 1,
		"appversion" : 		{
			"major" : 7,
			"minor" : 3,
			"revision" : 1,
			"architecture" : "x64",
			"modernui" : 1
		}
,
		"rect" : [ 1060.0, 195.0, 774.0, 1057.0 ],
		"bglocked" : 0,
		"openinpresentation" : 0,
		"default_fontsize" : 12.0,
		"default_fontface" : 0,
		"default_fontname" : "Arial",
		"gridonopen" : 1,
		"gridsize" : [ 15.0, 15.0 ],
		"gridsnaponopen" : 1,
		"objectsnaponopen" : 1,
		"statusbarvisible" : 2,
		"toolbarvisible" : 1,
		"lefttoolbarpinned" : 0,
		"toptoolbarpinned" : 0,
		"righttoolbarpinned" : 0,
		"bottomtoolbarpinned" : 0,
		"toolbars_unpinned_last_save" : 0,
		"tallnewobj" : 0,
		"boxanimatetime" : 200,
		"enablehscroll" : 1,
		"enablevscroll" : 1,
		"devicewidth" : 0.0,
		"description" : "",
		"digest" : "",
		"tags" : "",
		"style" : "",
		"subpatcher_template" : "",
		"boxes" : [ 			{
				"box" : 				{
					"id" : "obj-10",
					"maxclass" : "comment",
					"numinlets" : 1,
					"numoutlets" : 0,
					"patching_rect" : [ 135.0, 170.0, 150.0, 20.0 ],
					"style" : "",
					"text" : "initialisation Fil de Soi"
				}

			}
, 			{
				"box" : 				{
					"id" : "obj-9",
					"linecount" : 88,
					"maxclass" : "message",
					"numinlets" : 2,
					"numoutlets" : 1,
					"outlettype" : [ "" ],
					"patching_rect" : [ 112.0, 194.0, 149.0, 1188.0 ],
					"style" : "",
					"text" : ";\rtoMT d00 300;\rtoMT d01 425;\rtoMT d02 800;\rtoMT d03 925;\rtoMT d04 1300;\rtoMT d05 1800;\rtoMT d06 2050;\rtoMT d07 2300;\rtoMT d08 200;\rtoMT d09 500;\rtoMT d10 600;\rtoMT d11 1000;\rtoMT d12 3000;\rtoMT d13 2500;\rtoMT d14 700;\rtoMT d15 300;\rtoMT fd08 0.5;\rtoMT fd09 0.5;\rtoMT fd10 0.2;\rtoMT fd11 0.5;\rtoMT fd13 0;\rtoMT tr00 386;\rtoMT tr01 772;\rtoMT tr02 -386;\rtoMT tr03 180;\rtoMT tr04 386;\rtoMT tr05 -772;\rtoMT tr06 -45;\rtoMT tr07 180;\rtoMT tr12 -500;\rtoMT tr13 50;\rtoMT tr14 -1000;\rtoMT tr15 -1200;\rtoMT inp08 1;\rtoMT inp09 1;\rtoMT inp10 1;\rtoMT inp11 1;\rtoMT inp12 1;\rtoMT inp13 1;\rtoMT inp14 1;\rtoMT inp15 1;\rtoMT out00 1;\rtoMT out01 1;\rtoMT out02 1;\rtoMT out04 1;\rtoMT out06 1;\rtoMT out12 1;\rtoMT out13 0.4;\rtoMT out14 1;\rtoMT out15 1;\rtoMT xvd08 0;\rtoMT xvd09 0;\rtoMT xvd10 0;\rtoMT xvd11 0;\rtoMT dStretch 0.8;\rtoMT hStretch 4;\rtoMT hWin 24;\rtoMT smoothDuration 50;\rtoMT r000 1;\rtoMT r017 1;\rtoMT r034 1;\rtoMT r051 1;\rtoMT r068 1;\rtoMT r085 1;\rtoMT r102 1;\rtoMT r119 1;\rtoMT r008 1;\rtoMT r025 1;\rtoMT r042 1;\rtoMT r059 1;\rtoMT r072 1;\rtoMT r089 1;\rtoMT r106 1;\rtoMT r123 1;\rtoMT r136 1;\rtoMT r153 1;\rtoMT r170 1;\rtoMT r187 1;\rtoMT r013 1;\rtoMT r029 1;\rtoMT r045 1;\rtoMT r077 1;\rtoMT r109 1;\rtoMT r205 1;\rtoMT r221 1;\rtoMT r237 1;\rtoMT r253 1;\r"
				}

			}
, 			{
				"box" : 				{
					"id" : "obj-7",
					"maxclass" : "comment",
					"numinlets" : 1,
					"numoutlets" : 0,
					"patching_rect" : [ 355.0, 170.0, 150.0, 20.0 ],
					"style" : "",
					"text" : "initialisation MTDelHarmo"
				}

			}
, 			{
				"box" : 				{
					"id" : "obj-5",
					"linecount" : 357,
					"maxclass" : "message",
					"numinlets" : 2,
					"numoutlets" : 1,
					"outlettype" : [ "" ],
					"patching_rect" : [ 330.0, 194.0, 149.0, 4795.0 ],
					"style" : "",
					"text" : ";\rtoMT d00 0;\rtoMT d01 0;\rtoMT d02 0;\rtoMT d03 0;\rtoMT d04 0;\rtoMT d05 0;\rtoMT d06 0;\rtoMT d07 0;\rtoMT d08 0;\rtoMT d09 0;\rtoMT d10 0;\rtoMT d11 0;\rtoMT d12 0;\rtoMT d13 0;\rtoMT d14 0;\rtoMT d15 0;\rtoMT fd00 0.9;\rtoMT fd01 0.9;\rtoMT fd02 0.9;\rtoMT fd03 0.9;\rtoMT fd04 0.9;\rtoMT fd05 0.9;\rtoMT fd06 0.9;\rtoMT fd07 0.9;\rtoMT fd08 0.9;\rtoMT fd09 0.9;\rtoMT fd10 0.9;\rtoMT fd11 0.9;\rtoMT fd12 0.9;\rtoMT fd13 0.9;\rtoMT fd14 0.9;\rtoMT fd15 0.9;\rtoMT tr00 0;\rtoMT tr01 0;\rtoMT tr02 0;\rtoMT tr03 0;\rtoMT tr04 0;\rtoMT tr05 0;\rtoMT tr06 0;\rtoMT tr07 0;\rtoMT tr08 0;\rtoMT tr09 0;\rtoMT tr10 0;\rtoMT tr11 0;\rtoMT tr12 0;\rtoMT tr13 0;\rtoMT tr14 0;\rtoMT tr15 0;\rtoMT xvd00 1;\rtoMT xvd01 1;\rtoMT xvd02 1;\rtoMT xvd03 1;\rtoMT xvd04 1;\rtoMT xvd05 1;\rtoMT xvd06 1;\rtoMT xvd07 1;\rtoMT xvd08 1;\rtoMT xvd09 1;\rtoMT xvd10 1;\rtoMT xvd11 1;\rtoMT xvd12 1;\rtoMT xvd13 1;\rtoMT xvd14 1;\rtoMT xvd15 1;\rtoMT inp00 0;\rtoMT inp01 0;\rtoMT inp02 0;\rtoMT inp03 0;\rtoMT inp04 0;\rtoMT inp05 0;\rtoMT inp06 0;\rtoMT inp07 0;\rtoMT inp08 0;\rtoMT inp09 0;\rtoMT inp10 0;\rtoMT inp11 0;\rtoMT inp12 0;\rtoMT inp13 0;\rtoMT inp14 0;\rtoMT inp15 0;\rtoMT out00 0;\rtoMT out01 0;\rtoMT out02 0;\rtoMT out03 0;\rtoMT out04 0;\rtoMT out05 0;\rtoMT out06 0;\rtoMT out07 0;\rtoMT out08 0;\rtoMT out09 0;\rtoMT out10 0;\rtoMT out11 0;\rtoMT out12 0;\rtoMT out13 0;\rtoMT out14 0;\rtoMT out15 0;\rtoMT hWin 30;\rtoMT hStretch 1;\rtoMT dStretch 1;\rtoMT smoothDuration 50;\rtoMT r000 0;\rtoMT r016 0;\rtoMT r032 0;\rtoMT r048 0;\rtoMT r064 0;\rtoMT r080 0;\rtoMT r096 0;\rtoMT r112 0;\rtoMT r128 0;\rtoMT r144 0;\rtoMT r160 0;\rtoMT r176 0;\rtoMT r192 0;\rtoMT r208 0;\rtoMT r224 0;\rtoMT r240 0;\rtoMT r001 0;\rtoMT r017 0;\rtoMT r033 0;\rtoMT r049 0;\rtoMT r065 0;\rtoMT r081 0;\rtoMT r097 0;\rtoMT r113 0;\rtoMT r129 0;\rtoMT r145 0;\rtoMT r161 0;\rtoMT r177 0;\rtoMT r193 0;\rtoMT r209 0;\rtoMT r225 0;\rtoMT r241 0;\rtoMT r002 0;\rtoMT r018 0;\rtoMT r034 0;\rtoMT r050 0;\rtoMT r066 0;\rtoMT r082 0;\rtoMT r098 0;\rtoMT r114 0;\rtoMT r130 0;\rtoMT r146 0;\rtoMT r162 0;\rtoMT r178 0;\rtoMT r194 0;\rtoMT r210 0;\rtoMT r226 0;\rtoMT r242 0;\rtoMT r003 0;\rtoMT r019 0;\rtoMT r035 0;\rtoMT r051 0;\rtoMT r067 0;\rtoMT r083 0;\rtoMT r099 0;\rtoMT r115 0;\rtoMT r131 0;\rtoMT r147 0;\rtoMT r163 0;\rtoMT r179 0;\rtoMT r195 0;\rtoMT r211 0;\rtoMT r227 0;\rtoMT r243 0;\rtoMT r004 0;\rtoMT r020 0;\rtoMT r036 0;\rtoMT r052 0;\rtoMT r068 0;\rtoMT r084 0;\rtoMT r100 0;\rtoMT r116 0;\rtoMT r132 0;\rtoMT r148 0;\rtoMT r164 0;\rtoMT r180 0;\rtoMT r196 0;\rtoMT r212 0;\rtoMT r228 0;\rtoMT r244 0;\rtoMT r005 0;\rtoMT r021 0;\rtoMT r037 0;\rtoMT r053 0;\rtoMT r069 0;\rtoMT r085 0;\rtoMT r101 0;\rtoMT r117 0;\rtoMT r133 0;\rtoMT r149 0;\rtoMT r165 0;\rtoMT r181 0;\rtoMT r197 0;\rtoMT r213 0;\rtoMT r229 0;\rtoMT r245 0;\rtoMT r006 0;\rtoMT r022 0;\rtoMT r038 0;\rtoMT r054 0;\rtoMT r070 0;\rtoMT r086 0;\rtoMT r102 0;\rtoMT r118 0;\rtoMT r134 0;\rtoMT r150 0;\rtoMT r166 0;\rtoMT r182 0;\rtoMT r198 0;\rtoMT r214 0;\rtoMT r230 0;\rtoMT r246 0;\rtoMT r007 0;\rtoMT r023 0;\rtoMT r039 0;\rtoMT r055 0;\rtoMT r071 0;\rtoMT r087 0;\rtoMT r103 0;\rtoMT r119 0;\rtoMT r135 0;\rtoMT r151 0;\rtoMT r167 0;\rtoMT r183 0;\rtoMT r199 0;\rtoMT r215 0;\rtoMT r231 0;\rtoMT r247 0;\rtoMT r008 0;\rtoMT r024 0;\rtoMT r040 0;\rtoMT r056 0;\rtoMT r072 0;\rtoMT r088 0;\rtoMT r104 0;\rtoMT r120 0;\rtoMT r136 0;\rtoMT r152 0;\rtoMT r168 0;\rtoMT r184 0;\rtoMT r200 0;\rtoMT r216 0;\rtoMT r232 0;\rtoMT r248 0;\rtoMT r009 0;\rtoMT r025 0;\rtoMT r041 0;\rtoMT r057 0;\rtoMT r073 0;\rtoMT r089 0;\rtoMT r105 0;\rtoMT r121 0;\rtoMT r137 0;\rtoMT r153 0;\rtoMT r169 0;\rtoMT r185 0;\rtoMT r201 0;\rtoMT r217 0;\rtoMT r233 0;\rtoMT r249 0;\rtoMT r010 0;\rtoMT r026 0;\rtoMT r042 0;\rtoMT r058 0;\rtoMT r074 0;\rtoMT r090 0;\rtoMT r106 0;\rtoMT r122 0;\rtoMT r138 0;\rtoMT r154 0;\rtoMT r170 0;\rtoMT r186 0;\rtoMT r202 0;\rtoMT r218 0;\rtoMT r234 0;\rtoMT r250 0;\rtoMT r011 0;\rtoMT r027 0;\rtoMT r043 0;\rtoMT r059 0;\rtoMT r075 0;\rtoMT r091 0;\rtoMT r107 0;\rtoMT r123 0;\rtoMT r139 0;\rtoMT r155 0;\rtoMT r171 0;\rtoMT r187 0;\rtoMT r203 0;\rtoMT r219 0;\rtoMT r235 0;\rtoMT r251 0;\rtoMT r012 0;\rtoMT r028 0;\rtoMT r044 0;\rtoMT r060 0;\rtoMT r076 0;\rtoMT r092 0;\rtoMT r108 0;\rtoMT r124 0;\rtoMT r140 0;\rtoMT r156 0;\rtoMT r172 0;\rtoMT r188 0;\rtoMT r204 0;\rtoMT r220 0;\rtoMT r236 0;\rtoMT r252 0;\rtoMT r013 0;\rtoMT r029 0;\rtoMT r045 0;\rtoMT r061 0;\rtoMT r077 0;\rtoMT r093 0;\rtoMT r109 0;\rtoMT r125 0;\rtoMT r141 0;\rtoMT r157 0;\rtoMT r173 0;\rtoMT r189 0;\rtoMT r205 0;\rtoMT r221 0;\rtoMT r237 0;\rtoMT r253 0;\rtoMT r014 0;\rtoMT r030 0;\rtoMT r046 0;\rtoMT r062 0;\rtoMT r078 0;\rtoMT r094 0;\rtoMT r110 0;\rtoMT r126 0;\rtoMT r142 0;\rtoMT r158 0;\rtoMT r174 0;\rtoMT r190 0;\rtoMT r206 0;\rtoMT r222 0;\rtoMT r238 0;\rtoMT r254 0;\rtoMT r015 0;\rtoMT r031 0;\rtoMT r047 0;\rtoMT r063 0;\rtoMT r079 0;\rtoMT r095 0;\rtoMT r111 0;\rtoMT r127 0;\rtoMT r143 0;\rtoMT r159 0;\rtoMT r175 0;\rtoMT r191 0;\rtoMT r207 0;\rtoMT r223 0;\rtoMT r239 0;\rtoMT r255 0;\r"
				}

			}
, 			{
				"box" : 				{
					"id" : "obj-3",
					"maxclass" : "newobj",
					"numinlets" : 2,
					"numoutlets" : 1,
					"outlettype" : [ "bang" ],
					"patching_rect" : [ 112.0, 126.0, 69.0, 22.0 ],
					"style" : "",
					"text" : "delay 2000"
				}

			}
, 			{
				"box" : 				{
					"id" : "obj-2",
					"maxclass" : "newobj",
					"numinlets" : 1,
					"numoutlets" : 2,
					"outlettype" : [ "bang", "bang" ],
					"patching_rect" : [ 112.0, 70.0, 34.0, 22.0 ],
					"style" : "",
					"text" : "t b b"
				}

			}
, 			{
				"box" : 				{
					"comment" : "",
					"id" : "obj-1",
					"maxclass" : "inlet",
					"numinlets" : 0,
					"numoutlets" : 1,
					"outlettype" : [ "" ],
					"patching_rect" : [ 112.0, 9.0, 30.0, 30.0 ],
					"style" : ""
				}

			}
, 			{
				"box" : 				{
					"id" : "obj-78",
					"maxclass" : "newobj",
					"numinlets" : 1,
					"numoutlets" : 1,
					"outlettype" : [ "bang" ],
					"patching_rect" : [ 19.0, 13.0, 60.0, 22.0 ],
					"style" : "",
					"text" : "loadbang"
				}

			}
 ],
		"lines" : [ 			{
				"patchline" : 				{
					"destination" : [ "obj-2", 0 ],
					"disabled" : 0,
					"hidden" : 0,
					"source" : [ "obj-1", 0 ]
				}

			}
, 			{
				"patchline" : 				{
					"destination" : [ "obj-3", 0 ],
					"disabled" : 0,
					"hidden" : 0,
					"source" : [ "obj-2", 0 ]
				}

			}
, 			{
				"patchline" : 				{
					"destination" : [ "obj-5", 0 ],
					"disabled" : 0,
					"hidden" : 0,
					"midpoints" : [ 136.5, 117.0, 339.5, 117.0 ],
					"source" : [ "obj-2", 1 ]
				}

			}
, 			{
				"patchline" : 				{
					"destination" : [ "obj-9", 0 ],
					"disabled" : 0,
					"hidden" : 0,
					"source" : [ "obj-3", 0 ]
				}

			}
, 			{
				"patchline" : 				{
					"destination" : [ "obj-2", 0 ],
					"disabled" : 0,
					"hidden" : 0,
					"midpoints" : [ 28.5, 50.0, 121.5, 50.0 ],
					"source" : [ "obj-78", 0 ]
				}

			}
 ],
		"dependency_cache" : [  ],
		"autosave" : 0
	}

}
