{
	"patcher" : 	{
		"fileversion" : 1,
		"appversion" : 		{
			"major" : 7,
			"minor" : 3,
			"revision" : 6,
			"architecture" : "x86",
			"modernui" : 1
		}
,
		"rect" : [ 34.0, 79.0, 1372.0, 748.0 ],
		"bglocked" : 0,
		"openinpresentation" : 0,
		"default_fontsize" : 12.0,
		"default_fontface" : 0,
		"default_fontname" : "Arial",
		"gridonopen" : 1,
		"gridsize" : [ 15.0, 15.0 ],
		"gridsnaponopen" : 1,
		"objectsnaponopen" : 1,
		"statusbarvisible" : 2,
		"toolbarvisible" : 1,
		"lefttoolbarpinned" : 0,
		"toptoolbarpinned" : 0,
		"righttoolbarpinned" : 0,
		"bottomtoolbarpinned" : 0,
		"toolbars_unpinned_last_save" : 0,
		"tallnewobj" : 0,
		"boxanimatetime" : 200,
		"enablehscroll" : 1,
		"enablevscroll" : 1,
		"devicewidth" : 0.0,
		"description" : "",
		"digest" : "",
		"tags" : "",
		"style" : "",
		"subpatcher_template" : "",
		"boxes" : [ 			{
				"box" : 				{
					"id" : "obj-129",
					"maxclass" : "live.meter~",
					"numinlets" : 1,
					"numoutlets" : 1,
					"orientation" : 1,
					"outlettype" : [ "list" ],
					"patching_rect" : [ 610.5, 171.666656, 50.0, 5.0 ]
				}

			}
, 			{
				"box" : 				{
					"id" : "obj-128",
					"maxclass" : "live.meter~",
					"numinlets" : 1,
					"numoutlets" : 1,
					"orientation" : 1,
					"outlettype" : [ "list" ],
					"patching_rect" : [ 560.5, 193.166656, 50.0, 5.0 ]
				}

			}
, 			{
				"box" : 				{
					"id" : "obj-127",
					"maxclass" : "live.meter~",
					"numinlets" : 1,
					"numoutlets" : 1,
					"orientation" : 1,
					"outlettype" : [ "list" ],
					"patching_rect" : [ 510.499969, 215.0, 50.0, 5.0 ]
				}

			}
, 			{
				"box" : 				{
					"id" : "obj-126",
					"maxclass" : "live.meter~",
					"numinlets" : 1,
					"numoutlets" : 1,
					"orientation" : 1,
					"outlettype" : [ "list" ],
					"patching_rect" : [ 460.499939, 193.166656, 50.0, 5.0 ]
				}

			}
, 			{
				"box" : 				{
					"id" : "obj-125",
					"maxclass" : "live.meter~",
					"numinlets" : 1,
					"numoutlets" : 1,
					"orientation" : 1,
					"outlettype" : [ "list" ],
					"patching_rect" : [ 410.0, 171.666656, 50.0, 5.0 ]
				}

			}
, 			{
				"box" : 				{
					"id" : "obj-124",
					"maxclass" : "live.meter~",
					"numinlets" : 1,
					"numoutlets" : 1,
					"orientation" : 1,
					"outlettype" : [ "list" ],
					"patching_rect" : [ 460.499969, 149.666656, 50.0, 5.0 ]
				}

			}
, 			{
				"box" : 				{
					"comment" : "",
					"hidden" : 1,
					"id" : "obj-123",
					"index" : 0,
					"maxclass" : "inlet",
					"numinlets" : 0,
					"numoutlets" : 1,
					"outlettype" : [ "" ],
					"patching_rect" : [ 1334.0, -68.0, 30.0, 30.0 ],
					"style" : ""
				}

			}
, 			{
				"box" : 				{
					"comment" : "",
					"hidden" : 1,
					"id" : "obj-122",
					"index" : 0,
					"maxclass" : "inlet",
					"numinlets" : 0,
					"numoutlets" : 1,
					"outlettype" : [ "" ],
					"patching_rect" : [ 1302.0, -68.0, 30.0, 30.0 ],
					"style" : ""
				}

			}
, 			{
				"box" : 				{
					"comment" : "",
					"hidden" : 1,
					"id" : "obj-121",
					"index" : 0,
					"maxclass" : "inlet",
					"numinlets" : 0,
					"numoutlets" : 1,
					"outlettype" : [ "" ],
					"patching_rect" : [ 1270.0, -68.0, 30.0, 30.0 ],
					"style" : ""
				}

			}
, 			{
				"box" : 				{
					"comment" : "",
					"hidden" : 1,
					"id" : "obj-120",
					"index" : 0,
					"maxclass" : "inlet",
					"numinlets" : 0,
					"numoutlets" : 1,
					"outlettype" : [ "" ],
					"patching_rect" : [ 1238.0, -68.0, 30.0, 30.0 ],
					"style" : ""
				}

			}
, 			{
				"box" : 				{
					"comment" : "",
					"hidden" : 1,
					"id" : "obj-119",
					"index" : 0,
					"maxclass" : "inlet",
					"numinlets" : 0,
					"numoutlets" : 1,
					"outlettype" : [ "" ],
					"patching_rect" : [ 1206.0, -68.0, 30.0, 30.0 ],
					"style" : ""
				}

			}
, 			{
				"box" : 				{
					"comment" : "",
					"hidden" : 1,
					"id" : "obj-118",
					"index" : 0,
					"maxclass" : "inlet",
					"numinlets" : 0,
					"numoutlets" : 1,
					"outlettype" : [ "" ],
					"patching_rect" : [ 1174.0, -68.0, 30.0, 30.0 ],
					"style" : ""
				}

			}
, 			{
				"box" : 				{
					"comment" : "",
					"hidden" : 1,
					"id" : "obj-117",
					"index" : 0,
					"maxclass" : "inlet",
					"numinlets" : 0,
					"numoutlets" : 1,
					"outlettype" : [ "" ],
					"patching_rect" : [ 1142.0, -68.0, 30.0, 30.0 ],
					"style" : ""
				}

			}
, 			{
				"box" : 				{
					"comment" : "",
					"hidden" : 1,
					"id" : "obj-115",
					"index" : 0,
					"maxclass" : "inlet",
					"numinlets" : 0,
					"numoutlets" : 1,
					"outlettype" : [ "" ],
					"patching_rect" : [ 1110.0, -68.0, 30.0, 30.0 ],
					"style" : ""
				}

			}
, 			{
				"box" : 				{
					"id" : "obj-114",
					"maxclass" : "live.meter~",
					"numinlets" : 1,
					"numoutlets" : 1,
					"orientation" : 1,
					"outlettype" : [ "list" ],
					"patching_rect" : [ 560.5, 149.666656, 50.0, 5.0 ]
				}

			}
, 			{
				"box" : 				{
					"id" : "obj-104",
					"maxclass" : "live.meter~",
					"numinlets" : 1,
					"numoutlets" : 1,
					"orientation" : 1,
					"outlettype" : [ "list" ],
					"patching_rect" : [ 510.499969, 127.666656, 50.0, 5.0 ]
				}

			}
, 			{
				"box" : 				{
					"hidden" : 1,
					"id" : "obj-113",
					"maxclass" : "newobj",
					"numinlets" : 1,
					"numoutlets" : 3,
					"outlettype" : [ "", "", "" ],
					"patching_rect" : [ 992.0, -60.0, 107.0, 22.0 ],
					"restore" : [ 0 ],
					"saved_object_attributes" : 					{
						"parameter_enable" : 0
					}
,
					"style" : "",
					"text" : "pattr angularoffset",
					"varname" : "angularoffset"
				}

			}
, 			{
				"box" : 				{
					"hidden" : 1,
					"id" : "obj-112",
					"maxclass" : "newobj",
					"numinlets" : 1,
					"numoutlets" : 3,
					"outlettype" : [ "", "", "" ],
					"patching_rect" : [ 886.0, -60.0, 103.0, 22.0 ],
					"restore" : [ 1 ],
					"saved_object_attributes" : 					{
						"parameter_enable" : 0
					}
,
					"style" : "",
					"text" : "pattr directangles",
					"varname" : "directangles"
				}

			}
, 			{
				"box" : 				{
					"hidden" : 1,
					"id" : "obj-111",
					"maxclass" : "newobj",
					"numinlets" : 1,
					"numoutlets" : 1,
					"outlettype" : [ "" ],
					"patching_rect" : [ 812.0, -60.0, 72.0, 22.0 ],
					"style" : "",
					"text" : "loadmess 0"
				}

			}
, 			{
				"box" : 				{
					"hidden" : 1,
					"id" : "obj-110",
					"maxclass" : "newobj",
					"numinlets" : 1,
					"numoutlets" : 1,
					"outlettype" : [ "" ],
					"patching_rect" : [ 735.0, -60.0, 72.0, 22.0 ],
					"style" : "",
					"text" : "loadmess 1"
				}

			}
, 			{
				"box" : 				{
					"fontface" : 2,
					"fontsize" : 10.0,
					"id" : "obj-108",
					"maxclass" : "comment",
					"numinlets" : 1,
					"numoutlets" : 0,
					"patching_rect" : [ 673.0, 196.166656, 33.0, 18.0 ],
					"style" : "",
					"text" : "offset"
				}

			}
, 			{
				"box" : 				{
					"id" : "obj-109",
					"maxclass" : "number",
					"maximum" : 360,
					"minimum" : -360,
					"numinlets" : 1,
					"numoutlets" : 2,
					"outlettype" : [ "", "bang" ],
					"parameter_enable" : 0,
					"patching_rect" : [ 706.5, 193.166656, 50.0, 22.0 ],
					"style" : "",
					"varname" : "number[11]"
				}

			}
, 			{
				"box" : 				{
					"id" : "obj-107",
					"maxclass" : "newobj",
					"numinlets" : 1,
					"numoutlets" : 1,
					"outlettype" : [ "" ],
					"patching_rect" : [ 867.0, 481.5, 127.0, 22.0 ],
					"style" : "",
					"text" : "prepend angularoffset"
				}

			}
, 			{
				"box" : 				{
					"fontface" : 2,
					"fontsize" : 10.0,
					"id" : "obj-106",
					"maxclass" : "comment",
					"numinlets" : 1,
					"numoutlets" : 0,
					"patching_rect" : [ 700.000061, 168.0, 33.0, 18.0 ],
					"style" : "",
					"text" : "direct"
				}

			}
, 			{
				"box" : 				{
					"id" : "obj-105",
					"maxclass" : "toggle",
					"numinlets" : 1,
					"numoutlets" : 1,
					"outlettype" : [ "int" ],
					"parameter_enable" : 0,
					"patching_rect" : [ 732.500061, 165.0, 24.0, 24.0 ],
					"style" : "",
					"varname" : "toggle"
				}

			}
, 			{
				"box" : 				{
					"id" : "obj-103",
					"maxclass" : "newobj",
					"numinlets" : 1,
					"numoutlets" : 1,
					"outlettype" : [ "" ],
					"patching_rect" : [ 736.0, 481.5, 123.0, 22.0 ],
					"style" : "",
					"text" : "prepend directangles"
				}

			}
, 			{
				"box" : 				{
					"hidden" : 1,
					"id" : "obj-102",
					"maxclass" : "newobj",
					"numinlets" : 1,
					"numoutlets" : 3,
					"outlettype" : [ "", "", "" ],
					"patching_rect" : [ 1013.000427, -85.5, 51.0, 22.0 ],
					"restore" : [ 315 ],
					"saved_object_attributes" : 					{
						"parameter_enable" : 0
					}
,
					"style" : "",
					"text" : "pattr a7",
					"varname" : "a7"
				}

			}
, 			{
				"box" : 				{
					"hidden" : 1,
					"id" : "obj-91",
					"maxclass" : "newobj",
					"numinlets" : 1,
					"numoutlets" : 3,
					"outlettype" : [ "", "", "" ],
					"patching_rect" : [ 960.500366, -85.5, 51.0, 22.0 ],
					"restore" : [ 270 ],
					"saved_object_attributes" : 					{
						"parameter_enable" : 0
					}
,
					"style" : "",
					"text" : "pattr a6",
					"varname" : "a6"
				}

			}
, 			{
				"box" : 				{
					"hidden" : 1,
					"id" : "obj-90",
					"maxclass" : "newobj",
					"numinlets" : 1,
					"numoutlets" : 3,
					"outlettype" : [ "", "", "" ],
					"patching_rect" : [ 908.000305, -85.5, 51.0, 22.0 ],
					"restore" : [ 225 ],
					"saved_object_attributes" : 					{
						"parameter_enable" : 0
					}
,
					"style" : "",
					"text" : "pattr a5",
					"varname" : "a5"
				}

			}
, 			{
				"box" : 				{
					"hidden" : 1,
					"id" : "obj-89",
					"maxclass" : "newobj",
					"numinlets" : 1,
					"numoutlets" : 3,
					"outlettype" : [ "", "", "" ],
					"patching_rect" : [ 855.500244, -85.5, 51.0, 22.0 ],
					"restore" : [ 180 ],
					"saved_object_attributes" : 					{
						"parameter_enable" : 0
					}
,
					"style" : "",
					"text" : "pattr a4",
					"varname" : "a4"
				}

			}
, 			{
				"box" : 				{
					"hidden" : 1,
					"id" : "obj-87",
					"maxclass" : "newobj",
					"numinlets" : 1,
					"numoutlets" : 3,
					"outlettype" : [ "", "", "" ],
					"patching_rect" : [ 803.000183, -85.5, 51.0, 22.0 ],
					"restore" : [ 135 ],
					"saved_object_attributes" : 					{
						"parameter_enable" : 0
					}
,
					"style" : "",
					"text" : "pattr a3",
					"varname" : "a3"
				}

			}
, 			{
				"box" : 				{
					"hidden" : 1,
					"id" : "obj-71",
					"maxclass" : "newobj",
					"numinlets" : 1,
					"numoutlets" : 3,
					"outlettype" : [ "", "", "" ],
					"patching_rect" : [ 750.500122, -85.5, 51.0, 22.0 ],
					"restore" : [ 90 ],
					"saved_object_attributes" : 					{
						"parameter_enable" : 0
					}
,
					"style" : "",
					"text" : "pattr a2",
					"varname" : "a2"
				}

			}
, 			{
				"box" : 				{
					"hidden" : 1,
					"id" : "obj-48",
					"maxclass" : "newobj",
					"numinlets" : 1,
					"numoutlets" : 3,
					"outlettype" : [ "", "", "" ],
					"patching_rect" : [ 698.000061, -85.5, 51.0, 22.0 ],
					"restore" : [ 45 ],
					"saved_object_attributes" : 					{
						"parameter_enable" : 0
					}
,
					"style" : "",
					"text" : "pattr a1",
					"varname" : "a1"
				}

			}
, 			{
				"box" : 				{
					"hidden" : 1,
					"id" : "obj-46",
					"maxclass" : "newobj",
					"numinlets" : 1,
					"numoutlets" : 3,
					"outlettype" : [ "", "", "" ],
					"patching_rect" : [ 645.5, -85.5, 51.0, 22.0 ],
					"restore" : [ 0 ],
					"saved_object_attributes" : 					{
						"parameter_enable" : 0
					}
,
					"style" : "",
					"text" : "pattr a0",
					"varname" : "a0"
				}

			}
, 			{
				"box" : 				{
					"hidden" : 1,
					"id" : "obj-101",
					"maxclass" : "newobj",
					"numinlets" : 1,
					"numoutlets" : 1,
					"outlettype" : [ "bang" ],
					"patching_rect" : [ 491.0, -85.5, 60.0, 22.0 ],
					"style" : "",
					"text" : "loadbang"
				}

			}
, 			{
				"box" : 				{
					"id" : "obj-100",
					"maxclass" : "newobj",
					"numinlets" : 1,
					"numoutlets" : 1,
					"outlettype" : [ "" ],
					"patching_rect" : [ 618.499878, 440.0, 71.0, 22.0 ],
					"style" : "",
					"text" : "prepend a7"
				}

			}
, 			{
				"box" : 				{
					"id" : "obj-99",
					"maxclass" : "newobj",
					"numinlets" : 1,
					"numoutlets" : 1,
					"outlettype" : [ "" ],
					"patching_rect" : [ 587.499878, 416.0, 71.0, 22.0 ],
					"style" : "",
					"text" : "prepend a6"
				}

			}
, 			{
				"box" : 				{
					"id" : "obj-98",
					"maxclass" : "newobj",
					"numinlets" : 1,
					"numoutlets" : 1,
					"outlettype" : [ "" ],
					"patching_rect" : [ 556.499878, 392.0, 71.0, 22.0 ],
					"style" : "",
					"text" : "prepend a5"
				}

			}
, 			{
				"box" : 				{
					"id" : "obj-97",
					"maxclass" : "newobj",
					"numinlets" : 1,
					"numoutlets" : 1,
					"outlettype" : [ "" ],
					"patching_rect" : [ 525.499878, 368.0, 71.0, 22.0 ],
					"style" : "",
					"text" : "prepend a4"
				}

			}
, 			{
				"box" : 				{
					"id" : "obj-96",
					"maxclass" : "newobj",
					"numinlets" : 1,
					"numoutlets" : 1,
					"outlettype" : [ "" ],
					"patching_rect" : [ 494.499908, 344.0, 71.0, 22.0 ],
					"style" : "",
					"text" : "prepend a3"
				}

			}
, 			{
				"box" : 				{
					"id" : "obj-95",
					"maxclass" : "newobj",
					"numinlets" : 1,
					"numoutlets" : 1,
					"outlettype" : [ "" ],
					"patching_rect" : [ 463.499939, 320.0, 71.0, 22.0 ],
					"style" : "",
					"text" : "prepend a2"
				}

			}
, 			{
				"box" : 				{
					"id" : "obj-94",
					"maxclass" : "newobj",
					"numinlets" : 1,
					"numoutlets" : 1,
					"outlettype" : [ "" ],
					"patching_rect" : [ 432.499969, 296.0, 71.0, 22.0 ],
					"style" : "",
					"text" : "prepend a1"
				}

			}
, 			{
				"box" : 				{
					"id" : "obj-93",
					"maxclass" : "newobj",
					"numinlets" : 1,
					"numoutlets" : 1,
					"outlettype" : [ "" ],
					"patching_rect" : [ 401.5, 272.0, 71.0, 22.0 ],
					"style" : "",
					"text" : "prepend a0"
				}

			}
, 			{
				"box" : 				{
					"hidden" : 1,
					"id" : "obj-92",
					"maxclass" : "newobj",
					"numinlets" : 0,
					"numoutlets" : 1,
					"outlettype" : [ "" ],
					"patching_rect" : [ 433.0, -85.5, 53.0, 22.0 ],
					"style" : "",
					"text" : "r angles"
				}

			}
, 			{
				"box" : 				{
					"hidden" : 1,
					"id" : "obj-88",
					"maxclass" : "newobj",
					"numinlets" : 1,
					"numoutlets" : 8,
					"outlettype" : [ "int", "int", "int", "int", "int", "int", "int", "int" ],
					"patching_rect" : [ 433.0, -55.5, 210.5, 22.0 ],
					"style" : "",
					"text" : "unpack 0 45 90 135 180 225 270 315"
				}

			}
, 			{
				"box" : 				{
					"fontface" : 2,
					"fontsize" : 10.0,
					"id" : "obj-85",
					"maxclass" : "comment",
					"numinlets" : 1,
					"numoutlets" : 0,
					"patching_rect" : [ 536.499878, 129.666656, 23.0, 18.0 ],
					"style" : "",
					"text" : "a7"
				}

			}
, 			{
				"box" : 				{
					"id" : "obj-86",
					"maxclass" : "number",
					"maximum" : 360,
					"minimum" : -360,
					"numinlets" : 1,
					"numoutlets" : 2,
					"outlettype" : [ "", "bang" ],
					"parameter_enable" : 0,
					"patching_rect" : [ 559.5, 127.666656, 50.0, 22.0 ],
					"style" : "",
					"varname" : "number[10]"
				}

			}
, 			{
				"box" : 				{
					"fontface" : 2,
					"fontsize" : 10.0,
					"id" : "obj-83",
					"maxclass" : "comment",
					"numinlets" : 1,
					"numoutlets" : 0,
					"patching_rect" : [ 586.499878, 151.666656, 23.0, 18.0 ],
					"style" : "",
					"text" : "a6"
				}

			}
, 			{
				"box" : 				{
					"id" : "obj-84",
					"maxclass" : "number",
					"maximum" : 360,
					"minimum" : -360,
					"numinlets" : 1,
					"numoutlets" : 2,
					"outlettype" : [ "", "bang" ],
					"parameter_enable" : 0,
					"patching_rect" : [ 609.5, 149.666656, 50.0, 22.0 ],
					"style" : "",
					"varname" : "number[9]"
				}

			}
, 			{
				"box" : 				{
					"fontface" : 2,
					"fontsize" : 10.0,
					"id" : "obj-81",
					"maxclass" : "comment",
					"numinlets" : 1,
					"numoutlets" : 0,
					"patching_rect" : [ 536.499878, 173.666656, 23.0, 18.0 ],
					"style" : "",
					"text" : "a5"
				}

			}
, 			{
				"box" : 				{
					"id" : "obj-82",
					"maxclass" : "number",
					"maximum" : 360,
					"minimum" : -360,
					"numinlets" : 1,
					"numoutlets" : 2,
					"outlettype" : [ "", "bang" ],
					"parameter_enable" : 0,
					"patching_rect" : [ 559.5, 171.666656, 50.0, 22.0 ],
					"style" : "",
					"varname" : "number[8]"
				}

			}
, 			{
				"box" : 				{
					"fontface" : 2,
					"fontsize" : 10.0,
					"id" : "obj-79",
					"maxclass" : "comment",
					"numinlets" : 1,
					"numoutlets" : 0,
					"patching_rect" : [ 486.499939, 195.166656, 23.0, 18.0 ],
					"style" : "",
					"text" : "a4"
				}

			}
, 			{
				"box" : 				{
					"id" : "obj-80",
					"maxclass" : "number",
					"maximum" : 360,
					"minimum" : -360,
					"numinlets" : 1,
					"numoutlets" : 2,
					"outlettype" : [ "", "bang" ],
					"parameter_enable" : 0,
					"patching_rect" : [ 509.499969, 193.166656, 50.0, 22.0 ],
					"style" : "",
					"varname" : "number[7]"
				}

			}
, 			{
				"box" : 				{
					"fontface" : 2,
					"fontsize" : 10.0,
					"id" : "obj-77",
					"maxclass" : "comment",
					"numinlets" : 1,
					"numoutlets" : 0,
					"patching_rect" : [ 436.499939, 173.666656, 23.0, 18.0 ],
					"style" : "",
					"text" : "a3"
				}

			}
, 			{
				"box" : 				{
					"id" : "obj-78",
					"maxclass" : "number",
					"maximum" : 360,
					"minimum" : -360,
					"numinlets" : 1,
					"numoutlets" : 2,
					"outlettype" : [ "", "bang" ],
					"parameter_enable" : 0,
					"patching_rect" : [ 459.499969, 171.666656, 50.0, 22.0 ],
					"style" : "",
					"varname" : "number[6]"
				}

			}
, 			{
				"box" : 				{
					"fontface" : 2,
					"fontsize" : 10.0,
					"id" : "obj-75",
					"maxclass" : "comment",
					"numinlets" : 1,
					"numoutlets" : 0,
					"patching_rect" : [ 386.499908, 151.666656, 23.0, 18.0 ],
					"style" : "",
					"text" : "a2"
				}

			}
, 			{
				"box" : 				{
					"id" : "obj-76",
					"maxclass" : "number",
					"maximum" : 360,
					"minimum" : -360,
					"numinlets" : 1,
					"numoutlets" : 2,
					"outlettype" : [ "", "bang" ],
					"parameter_enable" : 0,
					"patching_rect" : [ 409.499939, 149.666656, 50.0, 22.0 ],
					"style" : "",
					"varname" : "number[5]"
				}

			}
, 			{
				"box" : 				{
					"fontface" : 2,
					"fontsize" : 10.0,
					"id" : "obj-73",
					"maxclass" : "comment",
					"numinlets" : 1,
					"numoutlets" : 0,
					"patching_rect" : [ 436.499939, 129.666656, 23.0, 18.0 ],
					"style" : "",
					"text" : "a1"
				}

			}
, 			{
				"box" : 				{
					"id" : "obj-74",
					"maxclass" : "number",
					"maximum" : 360,
					"minimum" : -360,
					"numinlets" : 1,
					"numoutlets" : 2,
					"outlettype" : [ "", "bang" ],
					"parameter_enable" : 0,
					"patching_rect" : [ 459.499969, 127.666656, 50.0, 22.0 ],
					"style" : "",
					"varname" : "number[4]"
				}

			}
, 			{
				"box" : 				{
					"fontface" : 2,
					"fontsize" : 10.0,
					"id" : "obj-72",
					"maxclass" : "comment",
					"numinlets" : 1,
					"numoutlets" : 0,
					"patching_rect" : [ 486.499969, 107.666656, 23.0, 18.0 ],
					"style" : "",
					"text" : "a0"
				}

			}
, 			{
				"box" : 				{
					"id" : "obj-47",
					"maxclass" : "number",
					"maximum" : 360,
					"minimum" : -360,
					"numinlets" : 1,
					"numoutlets" : 2,
					"outlettype" : [ "", "bang" ],
					"parameter_enable" : 0,
					"patching_rect" : [ 509.499969, 105.666656, 50.0, 22.0 ],
					"style" : "",
					"varname" : "number[3]"
				}

			}
, 			{
				"box" : 				{
					"fontface" : 2,
					"fontsize" : 10.0,
					"id" : "obj-45",
					"maxclass" : "comment",
					"numinlets" : 1,
					"numoutlets" : 0,
					"patching_rect" : [ 359.5, 108.666656, 29.0, 18.0 ],
					"style" : "",
					"text" : "deg."
				}

			}
, 			{
				"box" : 				{
					"fontsize" : 12.0,
					"id" : "obj-22",
					"maxclass" : "comment",
					"numinlets" : 1,
					"numoutlets" : 0,
					"patching_rect" : [ 297.5, 106.666656, 62.0, 20.0 ],
					"style" : "",
					"text" : "LS angles"
				}

			}
, 			{
				"box" : 				{
					"angle" : 270.0,
					"bgcolor" : [ 0.65098, 0.666667, 0.662745, 1.0 ],
					"bordercolor" : [ 0.65098, 0.666667, 0.662745, 1.0 ],
					"id" : "obj-20",
					"maxclass" : "panel",
					"mode" : 0,
					"numinlets" : 1,
					"numoutlets" : 0,
					"patching_rect" : [ 297.5, 102.333328, 464.0, 121.166664 ],
					"proportion" : 0.39,
					"style" : ""
				}

			}
, 			{
				"box" : 				{
					"hidden" : 1,
					"id" : "obj-44",
					"maxclass" : "newobj",
					"numinlets" : 1,
					"numoutlets" : 2,
					"outlettype" : [ "bang", "float" ],
					"patching_rect" : [ 1049.166626, 49.333332, 31.0, 22.0 ],
					"style" : "",
					"text" : "t b f"
				}

			}
, 			{
				"box" : 				{
					"hidden" : 1,
					"id" : "obj-43",
					"maxclass" : "newobj",
					"numinlets" : 1,
					"numoutlets" : 3,
					"outlettype" : [ "", "", "" ],
					"patching_rect" : [ 1236.0, -31.0, 104.0, 22.0 ],
					"restore" : [ 0.0 ],
					"saved_object_attributes" : 					{
						"parameter_enable" : 0
					}
,
					"style" : "",
					"text" : "pattr guitar_offset",
					"varname" : "guitar_offset"
				}

			}
, 			{
				"box" : 				{
					"hidden" : 1,
					"id" : "obj-42",
					"maxclass" : "newobj",
					"numinlets" : 1,
					"numoutlets" : 3,
					"outlettype" : [ "", "", "" ],
					"patching_rect" : [ 1105.0, -31.0, 126.5, 22.0 ],
					"restore" : [ 0.0 ],
					"saved_object_attributes" : 					{
						"parameter_enable" : 0
					}
,
					"style" : "",
					"text" : "pattr delharmo_offset",
					"varname" : "delharmo_offset"
				}

			}
, 			{
				"box" : 				{
					"fontface" : 2,
					"fontsize" : 10.0,
					"id" : "obj-28",
					"maxclass" : "comment",
					"numinlets" : 1,
					"numoutlets" : 0,
					"patching_rect" : [ 726.5, 11.0, 34.0, 18.0 ],
					"style" : "",
					"text" : "offset"
				}

			}
, 			{
				"box" : 				{
					"bgcolor" : [ 0.394356, 0.149215, 0.067687, 1.0 ],
					"fontface" : 2,
					"fontsize" : 10.0,
					"format" : 6,
					"id" : "obj-41",
					"maxclass" : "flonum",
					"maximum" : 20.0,
					"minimum" : -20.0,
					"numinlets" : 1,
					"numoutlets" : 2,
					"outlettype" : [ "", "bang" ],
					"parameter_enable" : 0,
					"patching_rect" : [ 680.499939, 10.0, 47.0, 20.0 ],
					"style" : "",
					"varname" : "number[1]"
				}

			}
, 			{
				"box" : 				{
					"fontface" : 2,
					"fontsize" : 10.0,
					"id" : "obj-23",
					"maxclass" : "comment",
					"numinlets" : 1,
					"numoutlets" : 0,
					"patching_rect" : [ 726.5, 43.0, 34.0, 18.0 ],
					"style" : "",
					"text" : "offset"
				}

			}
, 			{
				"box" : 				{
					"bgcolor" : [ 0.394356, 0.149215, 0.067687, 1.0 ],
					"fontface" : 2,
					"fontsize" : 10.0,
					"format" : 6,
					"id" : "obj-26",
					"maxclass" : "flonum",
					"maximum" : 20.0,
					"minimum" : -20.0,
					"numinlets" : 1,
					"numoutlets" : 2,
					"outlettype" : [ "", "bang" ],
					"parameter_enable" : 0,
					"patching_rect" : [ 680.499939, 42.0, 47.0, 20.0 ],
					"style" : "",
					"varname" : "number[2]"
				}

			}
, 			{
				"box" : 				{
					"hidden" : 1,
					"id" : "obj-21",
					"maxclass" : "newobj",
					"numinlets" : 1,
					"numoutlets" : 3,
					"outlettype" : [ "", "", "" ],
					"patching_rect" : [ 1002.0, -31.0, 97.0, 22.0 ],
					"restore" : [ 0.0 ],
					"saved_object_attributes" : 					{
						"parameter_enable" : 0
					}
,
					"style" : "",
					"text" : "pattr renv_offset",
					"varname" : "renv_offset"
				}

			}
, 			{
				"box" : 				{
					"hidden" : 1,
					"id" : "obj-19",
					"maxclass" : "newobj",
					"numinlets" : 1,
					"numoutlets" : 2,
					"outlettype" : [ "bang", "float" ],
					"patching_rect" : [ 972.166626, 17.5, 31.0, 22.0 ],
					"style" : "",
					"text" : "t b f"
				}

			}
, 			{
				"box" : 				{
					"hidden" : 1,
					"id" : "obj-17",
					"maxclass" : "newobj",
					"numinlets" : 1,
					"numoutlets" : 2,
					"outlettype" : [ "bang", "float" ],
					"patching_rect" : [ 236.0, 265.0, 31.0, 22.0 ],
					"style" : "",
					"text" : "t b f"
				}

			}
, 			{
				"box" : 				{
					"fontface" : 2,
					"fontsize" : 10.0,
					"id" : "obj-16",
					"maxclass" : "comment",
					"numinlets" : 1,
					"numoutlets" : 0,
					"patching_rect" : [ 259.833374, 34.0, 34.0, 18.0 ],
					"style" : "",
					"text" : "offset"
				}

			}
, 			{
				"box" : 				{
					"bgcolor" : [ 0.394356, 0.149215, 0.067687, 1.0 ],
					"fontface" : 2,
					"fontsize" : 10.0,
					"format" : 6,
					"id" : "obj-12",
					"maxclass" : "flonum",
					"maximum" : 20.0,
					"minimum" : -20.0,
					"numinlets" : 1,
					"numoutlets" : 2,
					"outlettype" : [ "", "bang" ],
					"parameter_enable" : 0,
					"patching_rect" : [ 216.0, 31.0, 47.0, 20.0 ],
					"style" : "",
					"varname" : "number"
				}

			}
, 			{
				"box" : 				{
					"hidden" : 1,
					"id" : "obj-5",
					"maxclass" : "newobj",
					"numinlets" : 1,
					"numoutlets" : 3,
					"outlettype" : [ "", "", "" ],
					"patching_rect" : [ 886.0, -31.0, 109.0, 22.0 ],
					"restore" : [ 127 ],
					"saved_object_attributes" : 					{
						"parameter_enable" : 0
					}
,
					"style" : "",
					"text" : "pattr general_level",
					"varname" : "general_level"
				}

			}
, 			{
				"box" : 				{
					"hidden" : 1,
					"id" : "obj-10",
					"maxclass" : "comment",
					"numinlets" : 1,
					"numoutlets" : 0,
					"patching_rect" : [ 795.0, -31.0, 81.0, 20.0 ],
					"style" : "",
					"text" : "general level"
				}

			}
, 			{
				"box" : 				{
					"comment" : "",
					"hidden" : 1,
					"id" : "obj-2",
					"index" : 0,
					"maxclass" : "inlet",
					"numinlets" : 0,
					"numoutlets" : 1,
					"outlettype" : [ "" ],
					"patching_rect" : [ 754.0, -36.0, 30.0, 30.0 ],
					"style" : ""
				}

			}
, 			{
				"box" : 				{
					"id" : "obj-70",
					"maxclass" : "newobj",
					"numinlets" : 1,
					"numoutlets" : 1,
					"outlettype" : [ "" ],
					"patching_rect" : [ 587.0, 481.5, 123.0, 22.0 ],
					"style" : "",
					"text" : "prepend generalGain"
				}

			}
, 			{
				"box" : 				{
					"id" : "obj-69",
					"maxclass" : "newobj",
					"numinlets" : 1,
					"numoutlets" : 1,
					"outlettype" : [ "" ],
					"patching_rect" : [ 469.333313, 481.5, 113.0, 22.0 ],
					"style" : "",
					"text" : "prepend guitarGain"
				}

			}
, 			{
				"box" : 				{
					"hidden" : 1,
					"id" : "obj-68",
					"maxclass" : "newobj",
					"numinlets" : 1,
					"numoutlets" : 1,
					"outlettype" : [ "" ],
					"patching_rect" : [ 648.0, -28.0, 85.0, 22.0 ],
					"style" : "",
					"text" : "loadmess 127"
				}

			}
, 			{
				"box" : 				{
					"hidden" : 1,
					"id" : "obj-67",
					"maxclass" : "newobj",
					"numinlets" : 0,
					"numoutlets" : 1,
					"outlettype" : [ "" ],
					"patching_rect" : [ 556.0, -28.0, 85.0, 22.0 ],
					"style" : "",
					"text" : "r mTDel_level"
				}

			}
, 			{
				"box" : 				{
					"hidden" : 1,
					"id" : "obj-66",
					"maxclass" : "newobj",
					"numinlets" : 0,
					"numoutlets" : 1,
					"outlettype" : [ "" ],
					"patching_rect" : [ 433.0, -28.0, 118.0, 22.0 ],
					"style" : "",
					"text" : "r directGuitare_level"
				}

			}
, 			{
				"box" : 				{
					"fontsize" : 12.0,
					"id" : "obj-58",
					"maxclass" : "comment",
					"numinlets" : 1,
					"numoutlets" : 0,
					"patching_rect" : [ 297.5, 73.666664, 104.0, 20.0 ],
					"style" : "",
					"text" : "General gain"
				}

			}
, 			{
				"box" : 				{
					"fontface" : 2,
					"fontsize" : 10.0,
					"id" : "obj-59",
					"maxclass" : "comment",
					"numinlets" : 1,
					"numoutlets" : 0,
					"patching_rect" : [ 659.499939, 76.666664, 29.0, 18.0 ],
					"style" : "",
					"text" : "dB"
				}

			}
, 			{
				"box" : 				{
					"fontface" : 2,
					"fontsize" : 10.0,
					"id" : "obj-60",
					"maxclass" : "comment",
					"numinlets" : 1,
					"numoutlets" : 0,
					"patching_rect" : [ 401.5, 75.666664, 29.0, 18.0 ],
					"style" : "",
					"text" : "level"
				}

			}
, 			{
				"box" : 				{
					"bgcolor" : [ 0.394356, 0.149215, 0.067687, 1.0 ],
					"cantchange" : 1,
					"id" : "obj-61",
					"maxclass" : "number",
					"numinlets" : 1,
					"numoutlets" : 2,
					"outlettype" : [ "", "bang" ],
					"parameter_enable" : 0,
					"patching_rect" : [ 562.499939, 74.666664, 50.0, 22.0 ],
					"style" : ""
				}

			}
, 			{
				"box" : 				{
					"id" : "obj-62",
					"knobcolor" : [ 0.394356, 0.149215, 0.067687, 1.0 ],
					"maxclass" : "slider",
					"numinlets" : 1,
					"numoutlets" : 1,
					"outlettype" : [ "" ],
					"parameter_enable" : 0,
					"patching_rect" : [ 432.499969, 75.666664, 128.0, 20.0 ],
					"size" : 158.0,
					"style" : "",
					"varname" : "slider"
				}

			}
, 			{
				"box" : 				{
					"cantchange" : 1,
					"fontface" : 2,
					"fontsize" : 10.0,
					"format" : 6,
					"id" : "obj-63",
					"maxclass" : "flonum",
					"maximum" : 20.0,
					"minimum" : -127.0,
					"numinlets" : 1,
					"numoutlets" : 2,
					"outlettype" : [ "", "bang" ],
					"parameter_enable" : 0,
					"patching_rect" : [ 614.499939, 75.666664, 47.0, 20.0 ],
					"style" : ""
				}

			}
, 			{
				"box" : 				{
					"hidden" : 1,
					"id" : "obj-64",
					"maxclass" : "newobj",
					"numinlets" : 1,
					"numoutlets" : 1,
					"outlettype" : [ "" ],
					"patching_rect" : [ 972.166626, 127.333321, 122.0, 22.0 ],
					"style" : "",
					"text" : "expr (($f1 - 127)*0.6)"
				}

			}
, 			{
				"box" : 				{
					"angle" : 270.0,
					"bgcolor" : [ 0.65098, 0.666667, 0.662745, 1.0 ],
					"bordercolor" : [ 0.65098, 0.666667, 0.662745, 1.0 ],
					"id" : "obj-65",
					"maxclass" : "panel",
					"mode" : 0,
					"numinlets" : 1,
					"numoutlets" : 0,
					"patching_rect" : [ 297.5, 69.666664, 464.0, 30.666664 ],
					"proportion" : 0.39,
					"style" : ""
				}

			}
, 			{
				"box" : 				{
					"id" : "obj-57",
					"maxclass" : "newobj",
					"numinlets" : 1,
					"numoutlets" : 1,
					"outlettype" : [ "" ],
					"patching_rect" : [ 330.333313, 481.5, 133.0, 22.0 ],
					"style" : "",
					"text" : "prepend delharmoGain"
				}

			}
, 			{
				"box" : 				{
					"fontsize" : 12.0,
					"id" : "obj-49",
					"maxclass" : "comment",
					"numinlets" : 1,
					"numoutlets" : 0,
					"patching_rect" : [ 298.0, 40.0, 104.0, 20.0 ],
					"style" : "",
					"text" : "Direct guitar"
				}

			}
, 			{
				"box" : 				{
					"fontface" : 2,
					"fontsize" : 10.0,
					"id" : "obj-50",
					"maxclass" : "comment",
					"numinlets" : 1,
					"numoutlets" : 0,
					"patching_rect" : [ 660.0, 43.0, 29.0, 18.0 ],
					"style" : "",
					"text" : "dB"
				}

			}
, 			{
				"box" : 				{
					"fontface" : 2,
					"fontsize" : 10.0,
					"id" : "obj-51",
					"maxclass" : "comment",
					"numinlets" : 1,
					"numoutlets" : 0,
					"patching_rect" : [ 402.0, 42.0, 29.0, 18.0 ],
					"style" : "",
					"text" : "level"
				}

			}
, 			{
				"box" : 				{
					"cantchange" : 1,
					"id" : "obj-52",
					"maxclass" : "number",
					"numinlets" : 1,
					"numoutlets" : 2,
					"outlettype" : [ "", "bang" ],
					"parameter_enable" : 0,
					"patching_rect" : [ 563.0, 41.0, 50.0, 22.0 ],
					"style" : ""
				}

			}
, 			{
				"box" : 				{
					"id" : "obj-53",
					"maxclass" : "slider",
					"numinlets" : 1,
					"numoutlets" : 1,
					"outlettype" : [ "" ],
					"parameter_enable" : 0,
					"patching_rect" : [ 433.0, 42.0, 128.0, 20.0 ],
					"size" : 158.0,
					"style" : ""
				}

			}
, 			{
				"box" : 				{
					"cantchange" : 1,
					"fontface" : 2,
					"fontsize" : 10.0,
					"format" : 6,
					"id" : "obj-54",
					"maxclass" : "flonum",
					"maximum" : 18.0,
					"minimum" : -127.0,
					"numinlets" : 1,
					"numoutlets" : 2,
					"outlettype" : [ "", "bang" ],
					"parameter_enable" : 0,
					"patching_rect" : [ 615.0, 42.0, 47.0, 20.0 ],
					"style" : ""
				}

			}
, 			{
				"box" : 				{
					"hidden" : 1,
					"id" : "obj-55",
					"maxclass" : "newobj",
					"numinlets" : 2,
					"numoutlets" : 1,
					"outlettype" : [ "" ],
					"patching_rect" : [ 934.166626, 91.0, 146.0, 22.0 ],
					"style" : "",
					"text" : "expr (($f1 - 127)*0.6+$f2)"
				}

			}
, 			{
				"box" : 				{
					"angle" : 270.0,
					"bgcolor" : [ 0.65098, 0.666667, 0.662745, 1.0 ],
					"bordercolor" : [ 0.65098, 0.666667, 0.662745, 1.0 ],
					"id" : "obj-56",
					"maxclass" : "panel",
					"mode" : 0,
					"numinlets" : 1,
					"numoutlets" : 0,
					"patching_rect" : [ 298.0, 36.0, 463.5, 31.666666 ],
					"proportion" : 0.39,
					"style" : ""
				}

			}
, 			{
				"box" : 				{
					"fontsize" : 12.0,
					"id" : "obj-38",
					"maxclass" : "comment",
					"numinlets" : 1,
					"numoutlets" : 0,
					"patching_rect" : [ 298.0, 7.0, 104.0, 20.0 ],
					"style" : "",
					"text" : "Delays & Harmos"
				}

			}
, 			{
				"box" : 				{
					"fontface" : 2,
					"fontsize" : 10.0,
					"id" : "obj-32",
					"maxclass" : "comment",
					"numinlets" : 1,
					"numoutlets" : 0,
					"patching_rect" : [ 660.0, 10.0, 29.0, 18.0 ],
					"style" : "",
					"text" : "dB"
				}

			}
, 			{
				"box" : 				{
					"fontface" : 2,
					"fontsize" : 10.0,
					"id" : "obj-33",
					"maxclass" : "comment",
					"numinlets" : 1,
					"numoutlets" : 0,
					"patching_rect" : [ 402.0, 9.0, 29.0, 18.0 ],
					"style" : "",
					"text" : "level"
				}

			}
, 			{
				"box" : 				{
					"cantchange" : 1,
					"id" : "obj-34",
					"maxclass" : "number",
					"numinlets" : 1,
					"numoutlets" : 2,
					"outlettype" : [ "", "bang" ],
					"parameter_enable" : 0,
					"patching_rect" : [ 563.0, 8.0, 50.0, 22.0 ],
					"style" : ""
				}

			}
, 			{
				"box" : 				{
					"id" : "obj-35",
					"maxclass" : "slider",
					"numinlets" : 1,
					"numoutlets" : 1,
					"outlettype" : [ "" ],
					"parameter_enable" : 0,
					"patching_rect" : [ 433.0, 9.0, 128.0, 20.0 ],
					"size" : 158.0,
					"style" : ""
				}

			}
, 			{
				"box" : 				{
					"cantchange" : 1,
					"fontface" : 2,
					"fontsize" : 10.0,
					"format" : 6,
					"id" : "obj-36",
					"maxclass" : "flonum",
					"maximum" : 18.0,
					"minimum" : -127.0,
					"numinlets" : 1,
					"numoutlets" : 2,
					"outlettype" : [ "", "bang" ],
					"parameter_enable" : 0,
					"patching_rect" : [ 615.0, 9.0, 47.0, 20.0 ],
					"style" : ""
				}

			}
, 			{
				"box" : 				{
					"hidden" : 1,
					"id" : "obj-37",
					"maxclass" : "newobj",
					"numinlets" : 2,
					"numoutlets" : 1,
					"outlettype" : [ "" ],
					"patching_rect" : [ 894.666626, 49.333332, 146.0, 22.0 ],
					"style" : "",
					"text" : "expr (($f1 - 127)*0.6+$f2)"
				}

			}
, 			{
				"box" : 				{
					"id" : "obj-31",
					"maxclass" : "newobj",
					"numinlets" : 1,
					"numoutlets" : 1,
					"outlettype" : [ "" ],
					"patching_rect" : [ 216.0, 481.5, 108.0, 22.0 ],
					"style" : "",
					"text" : "prepend renv_trim"
				}

			}
, 			{
				"box" : 				{
					"fontface" : 2,
					"fontsize" : 10.0,
					"id" : "obj-30",
					"maxclass" : "comment",
					"numinlets" : 1,
					"numoutlets" : 0,
					"patching_rect" : [ 263.0, 66.0, 29.0, 18.0 ],
					"style" : "",
					"text" : "dB"
				}

			}
, 			{
				"box" : 				{
					"fontface" : 2,
					"fontsize" : 10.0,
					"id" : "obj-29",
					"maxclass" : "comment",
					"numinlets" : 1,
					"numoutlets" : 0,
					"patching_rect" : [ 3.0, 65.0, 29.0, 18.0 ],
					"style" : "",
					"text" : "level"
				}

			}
, 			{
				"box" : 				{
					"id" : "obj-27",
					"maxclass" : "number",
					"numinlets" : 1,
					"numoutlets" : 2,
					"outlettype" : [ "", "bang" ],
					"parameter_enable" : 0,
					"patching_rect" : [ 164.0, 64.0, 50.0, 22.0 ],
					"style" : ""
				}

			}
, 			{
				"box" : 				{
					"id" : "obj-25",
					"maxclass" : "slider",
					"numinlets" : 1,
					"numoutlets" : 1,
					"outlettype" : [ "" ],
					"parameter_enable" : 0,
					"patching_rect" : [ 34.0, 65.0, 128.0, 20.0 ],
					"size" : 158.0,
					"style" : ""
				}

			}
, 			{
				"box" : 				{
					"fontface" : 2,
					"fontsize" : 10.0,
					"format" : 6,
					"id" : "obj-24",
					"maxclass" : "flonum",
					"maximum" : 18.0,
					"minimum" : -127.0,
					"numinlets" : 1,
					"numoutlets" : 2,
					"outlettype" : [ "", "bang" ],
					"parameter_enable" : 0,
					"patching_rect" : [ 216.0, 65.0, 47.0, 20.0 ],
					"style" : ""
				}

			}
, 			{
				"box" : 				{
					"id" : "obj-18",
					"maxclass" : "newobj",
					"numinlets" : 2,
					"numoutlets" : 1,
					"outlettype" : [ "" ],
					"patching_rect" : [ 178.5, 329.0, 146.0, 22.0 ],
					"style" : "",
					"text" : "expr (($f1 - 127)*0.6+$f2)"
				}

			}
, 			{
				"box" : 				{
					"hidden" : 1,
					"id" : "obj-15",
					"maxclass" : "newobj",
					"numinlets" : 0,
					"numoutlets" : 1,
					"outlettype" : [ "" ],
					"patching_rect" : [ 259.0, -28.0, 79.0, 22.0 ],
					"style" : "",
					"text" : "r renv8_level"
				}

			}
, 			{
				"box" : 				{
					"fontface" : 2,
					"fontsize" : 10.0,
					"id" : "obj-14",
					"maxclass" : "comment",
					"numinlets" : 1,
					"numoutlets" : 0,
					"patching_rect" : [ 110.0, 32.0, 63.0, 18.0 ],
					"style" : "",
					"text" : "shortening"
				}

			}
, 			{
				"box" : 				{
					"fontface" : 2,
					"fontsize" : 10.0,
					"id" : "obj-13",
					"maxclass" : "comment",
					"numinlets" : 1,
					"numoutlets" : 0,
					"patching_rect" : [ 3.0, 32.0, 29.0, 18.0 ],
					"style" : "",
					"text" : "freq"
				}

			}
, 			{
				"box" : 				{
					"format" : 6,
					"id" : "obj-11",
					"maxclass" : "flonum",
					"maximum" : 1.0,
					"minimum" : 0.0,
					"numinlets" : 1,
					"numoutlets" : 2,
					"outlettype" : [ "", "bang" ],
					"parameter_enable" : 0,
					"patching_rect" : [ 164.0, 30.0, 50.0, 22.0 ],
					"style" : ""
				}

			}
, 			{
				"box" : 				{
					"id" : "obj-9",
					"maxclass" : "newobj",
					"numinlets" : 1,
					"numoutlets" : 1,
					"outlettype" : [ "" ],
					"patching_rect" : [ 164.0, 373.0, 115.0, 22.0 ],
					"style" : "",
					"text" : "prepend renv_short"
				}

			}
, 			{
				"box" : 				{
					"hidden" : 1,
					"id" : "obj-8",
					"maxclass" : "newobj",
					"numinlets" : 0,
					"numoutlets" : 1,
					"outlettype" : [ "" ],
					"patching_rect" : [ 164.0, -28.0, 81.0, 22.0 ],
					"style" : "",
					"text" : "r renv8_short"
				}

			}
, 			{
				"box" : 				{
					"id" : "obj-7",
					"maxclass" : "newobj",
					"numinlets" : 1,
					"numoutlets" : 0,
					"patching_rect" : [ 37.0, 590.0, 47.0, 22.0 ],
					"style" : "",
					"text" : "s toMT"
				}

			}
, 			{
				"box" : 				{
					"fontsize" : 12.0,
					"id" : "obj-6",
					"maxclass" : "comment",
					"numinlets" : 1,
					"numoutlets" : 0,
					"patching_rect" : [ 60.0, 3.0, 168.0, 20.0 ],
					"style" : "",
					"text" : "Random envelope on guitar"
				}

			}
, 			{
				"box" : 				{
					"id" : "obj-4",
					"maxclass" : "newobj",
					"numinlets" : 1,
					"numoutlets" : 1,
					"outlettype" : [ "" ],
					"patching_rect" : [ 34.0, 334.0, 109.0, 22.0 ],
					"style" : "",
					"text" : "prepend renv_freq"
				}

			}
, 			{
				"box" : 				{
					"format" : 6,
					"id" : "obj-3",
					"maxclass" : "flonum",
					"maximum" : 100.0,
					"minimum" : 0.01,
					"numinlets" : 1,
					"numoutlets" : 2,
					"outlettype" : [ "", "bang" ],
					"parameter_enable" : 0,
					"patching_rect" : [ 34.0, 30.0, 50.0, 22.0 ],
					"style" : ""
				}

			}
, 			{
				"box" : 				{
					"hidden" : 1,
					"id" : "obj-1",
					"maxclass" : "newobj",
					"numinlets" : 0,
					"numoutlets" : 1,
					"outlettype" : [ "" ],
					"patching_rect" : [ 34.0, -28.0, 75.0, 22.0 ],
					"style" : "",
					"text" : "r renv8_freq"
				}

			}
, 			{
				"box" : 				{
					"angle" : 270.0,
					"bgcolor" : [ 0.65098, 0.666667, 0.662745, 1.0 ],
					"bordercolor" : [ 0.65098, 0.666667, 0.662745, 1.0 ],
					"id" : "obj-39",
					"maxclass" : "panel",
					"mode" : 0,
					"numinlets" : 1,
					"numoutlets" : 0,
					"patching_rect" : [ 3.0, 2.0, 289.0, 98.333328 ],
					"proportion" : 0.39,
					"style" : ""
				}

			}
, 			{
				"box" : 				{
					"angle" : 270.0,
					"bgcolor" : [ 0.65098, 0.666667, 0.662745, 1.0 ],
					"bordercolor" : [ 0.65098, 0.666667, 0.662745, 1.0 ],
					"id" : "obj-40",
					"maxclass" : "panel",
					"mode" : 0,
					"numinlets" : 1,
					"numoutlets" : 0,
					"patching_rect" : [ 298.0, 3.0, 463.5, 31.0 ],
					"proportion" : 0.39,
					"style" : ""
				}

			}
 ],
		"lines" : [ 			{
				"patchline" : 				{
					"destination" : [ "obj-3", 0 ],
					"hidden" : 1,
					"source" : [ "obj-1", 0 ]
				}

			}
, 			{
				"patchline" : 				{
					"destination" : [ "obj-7", 0 ],
					"midpoints" : [ 627.999878, 525.5, 46.5, 525.5 ],
					"source" : [ "obj-100", 0 ]
				}

			}
, 			{
				"patchline" : 				{
					"destination" : [ "obj-88", 0 ],
					"hidden" : 1,
					"midpoints" : [ 500.5, -60.0, 442.5, -60.0 ],
					"source" : [ "obj-101", 0 ]
				}

			}
, 			{
				"patchline" : 				{
					"destination" : [ "obj-86", 0 ],
					"hidden" : 1,
					"midpoints" : [ 1038.500488, 31.583328, 569.0, 31.583328 ],
					"source" : [ "obj-102", 1 ]
				}

			}
, 			{
				"patchline" : 				{
					"destination" : [ "obj-7", 0 ],
					"source" : [ "obj-103", 0 ]
				}

			}
, 			{
				"patchline" : 				{
					"destination" : [ "obj-103", 0 ],
					"hidden" : 1,
					"source" : [ "obj-105", 0 ]
				}

			}
, 			{
				"patchline" : 				{
					"destination" : [ "obj-7", 0 ],
					"source" : [ "obj-107", 0 ]
				}

			}
, 			{
				"patchline" : 				{
					"destination" : [ "obj-107", 0 ],
					"hidden" : 1,
					"midpoints" : [ 716.0, 346.833313, 876.5, 346.833313 ],
					"source" : [ "obj-109", 0 ]
				}

			}
, 			{
				"patchline" : 				{
					"destination" : [ "obj-9", 0 ],
					"hidden" : 1,
					"source" : [ "obj-11", 0 ]
				}

			}
, 			{
				"patchline" : 				{
					"destination" : [ "obj-105", 0 ],
					"hidden" : 1,
					"source" : [ "obj-110", 0 ]
				}

			}
, 			{
				"patchline" : 				{
					"destination" : [ "obj-109", 0 ],
					"hidden" : 1,
					"midpoints" : [ 821.5, 76.083328, 716.0, 76.083328 ],
					"source" : [ "obj-111", 0 ]
				}

			}
, 			{
				"patchline" : 				{
					"destination" : [ "obj-105", 0 ],
					"hidden" : 1,
					"midpoints" : [ 937.5, 62.25, 742.000061, 62.25 ],
					"source" : [ "obj-112", 1 ]
				}

			}
, 			{
				"patchline" : 				{
					"destination" : [ "obj-109", 0 ],
					"hidden" : 1,
					"midpoints" : [ 1045.5, 77.083328, 716.0, 77.083328 ],
					"source" : [ "obj-113", 1 ]
				}

			}
, 			{
				"patchline" : 				{
					"destination" : [ "obj-104", 0 ],
					"hidden" : 1,
					"midpoints" : [ 1119.5, 44.333328, 520.0, 44.333328 ],
					"source" : [ "obj-115", 0 ]
				}

			}
, 			{
				"patchline" : 				{
					"destination" : [ "obj-124", 0 ],
					"hidden" : 1,
					"midpoints" : [ 1151.5, 55.333328, 469.999969, 55.333328 ],
					"source" : [ "obj-117", 0 ]
				}

			}
, 			{
				"patchline" : 				{
					"destination" : [ "obj-125", 0 ],
					"hidden" : 1,
					"midpoints" : [ 1183.5, 66.333328, 419.5, 66.333328 ],
					"source" : [ "obj-118", 0 ]
				}

			}
, 			{
				"patchline" : 				{
					"destination" : [ "obj-126", 0 ],
					"hidden" : 1,
					"midpoints" : [ 1215.5, 77.083328, 469.999939, 77.083328 ],
					"source" : [ "obj-119", 0 ]
				}

			}
, 			{
				"patchline" : 				{
					"destination" : [ "obj-17", 0 ],
					"hidden" : 1,
					"midpoints" : [ 225.5, 100.5, 245.5, 100.5 ],
					"source" : [ "obj-12", 0 ]
				}

			}
, 			{
				"patchline" : 				{
					"destination" : [ "obj-127", 0 ],
					"hidden" : 1,
					"midpoints" : [ 1247.5, 88.0, 520.0, 88.0 ],
					"source" : [ "obj-120", 0 ]
				}

			}
, 			{
				"patchline" : 				{
					"destination" : [ "obj-82", 0 ],
					"hidden" : 1,
					"midpoints" : [ 1279.5, 66.333328, 569.0, 66.333328 ],
					"source" : [ "obj-121", 0 ]
				}

			}
, 			{
				"patchline" : 				{
					"destination" : [ "obj-129", 0 ],
					"hidden" : 1,
					"midpoints" : [ 1311.5, 66.333328, 620.0, 66.333328 ],
					"source" : [ "obj-122", 0 ]
				}

			}
, 			{
				"patchline" : 				{
					"destination" : [ "obj-114", 0 ],
					"hidden" : 1,
					"midpoints" : [ 1343.5, 55.333328, 570.0, 55.333328 ],
					"source" : [ "obj-123", 0 ]
				}

			}
, 			{
				"patchline" : 				{
					"destination" : [ "obj-25", 0 ],
					"hidden" : 1,
					"midpoints" : [ 268.5, 12.5, 43.5, 12.5 ],
					"source" : [ "obj-15", 0 ]
				}

			}
, 			{
				"patchline" : 				{
					"destination" : [ "obj-18", 1 ],
					"hidden" : 1,
					"source" : [ "obj-17", 1 ]
				}

			}
, 			{
				"patchline" : 				{
					"destination" : [ "obj-18", 0 ],
					"hidden" : 1,
					"source" : [ "obj-17", 0 ]
				}

			}
, 			{
				"patchline" : 				{
					"destination" : [ "obj-24", 0 ],
					"hidden" : 1,
					"midpoints" : [ 188.0, 360.0, 282.5, 360.0, 282.5, 49.0, 225.5, 49.0 ],
					"source" : [ "obj-18", 0 ]
				}

			}
, 			{
				"patchline" : 				{
					"destination" : [ "obj-37", 1 ],
					"hidden" : 1,
					"midpoints" : [ 993.666626, 43.916664, 1031.166626, 43.916664 ],
					"source" : [ "obj-19", 1 ]
				}

			}
, 			{
				"patchline" : 				{
					"destination" : [ "obj-37", 0 ],
					"hidden" : 1,
					"midpoints" : [ 981.666626, 43.916664, 904.166626, 43.916664 ],
					"source" : [ "obj-19", 0 ]
				}

			}
, 			{
				"patchline" : 				{
					"destination" : [ "obj-62", 0 ],
					"hidden" : 1,
					"midpoints" : [ 763.5, 34.333332, 441.999969, 34.333332 ],
					"source" : [ "obj-2", 0 ]
				}

			}
, 			{
				"patchline" : 				{
					"destination" : [ "obj-12", 0 ],
					"hidden" : 1,
					"midpoints" : [ 1050.5, 15.0, 225.5, 15.0 ],
					"source" : [ "obj-21", 1 ]
				}

			}
, 			{
				"patchline" : 				{
					"destination" : [ "obj-31", 0 ],
					"hidden" : 1,
					"source" : [ "obj-24", 0 ]
				}

			}
, 			{
				"patchline" : 				{
					"destination" : [ "obj-18", 0 ],
					"hidden" : 1,
					"midpoints" : [ 43.5, 102.5, 188.0, 102.5 ],
					"order" : 0,
					"source" : [ "obj-25", 0 ]
				}

			}
, 			{
				"patchline" : 				{
					"destination" : [ "obj-27", 0 ],
					"hidden" : 1,
					"midpoints" : [ 43.5, 95.0, 108.5, 95.0, 108.5, 53.0, 173.5, 53.0 ],
					"order" : 1,
					"source" : [ "obj-25", 0 ]
				}

			}
, 			{
				"patchline" : 				{
					"destination" : [ "obj-44", 0 ],
					"hidden" : 1,
					"midpoints" : [ 689.999939, 72.0, 874.333252, 72.0, 874.333252, 38.333332, 1058.666626, 38.333332 ],
					"source" : [ "obj-26", 0 ]
				}

			}
, 			{
				"patchline" : 				{
					"destination" : [ "obj-4", 0 ],
					"hidden" : 1,
					"source" : [ "obj-3", 0 ]
				}

			}
, 			{
				"patchline" : 				{
					"destination" : [ "obj-7", 0 ],
					"source" : [ "obj-31", 0 ]
				}

			}
, 			{
				"patchline" : 				{
					"destination" : [ "obj-34", 0 ],
					"hidden" : 1,
					"midpoints" : [ 442.5, 39.0, 507.5, 39.0, 507.5, -3.0, 572.5, -3.0 ],
					"order" : 1,
					"source" : [ "obj-35", 0 ]
				}

			}
, 			{
				"patchline" : 				{
					"destination" : [ "obj-37", 0 ],
					"hidden" : 1,
					"midpoints" : [ 442.5, 41.5, 904.166626, 41.5 ],
					"order" : 0,
					"source" : [ "obj-35", 0 ]
				}

			}
, 			{
				"patchline" : 				{
					"destination" : [ "obj-57", 0 ],
					"hidden" : 1,
					"midpoints" : [ 624.5, 259.0, 339.833313, 259.0 ],
					"source" : [ "obj-36", 0 ]
				}

			}
, 			{
				"patchline" : 				{
					"destination" : [ "obj-36", 0 ],
					"hidden" : 1,
					"midpoints" : [ 904.166626, 88.0, 871.166687, 88.0, 871.166687, -1.0, 624.5, -1.0 ],
					"source" : [ "obj-37", 0 ]
				}

			}
, 			{
				"patchline" : 				{
					"destination" : [ "obj-7", 0 ],
					"source" : [ "obj-4", 0 ]
				}

			}
, 			{
				"patchline" : 				{
					"destination" : [ "obj-19", 0 ],
					"hidden" : 1,
					"midpoints" : [ 689.999939, 40.0, 835.833252, 40.0, 835.833252, 6.5, 981.666626, 6.5 ],
					"source" : [ "obj-41", 0 ]
				}

			}
, 			{
				"patchline" : 				{
					"destination" : [ "obj-41", 0 ],
					"hidden" : 1,
					"midpoints" : [ 1168.25, 0.0, 689.999939, 0.0 ],
					"source" : [ "obj-42", 1 ]
				}

			}
, 			{
				"patchline" : 				{
					"destination" : [ "obj-26", 0 ],
					"hidden" : 1,
					"midpoints" : [ 1288.0, 32.0, 689.999939, 32.0 ],
					"source" : [ "obj-43", 1 ]
				}

			}
, 			{
				"patchline" : 				{
					"destination" : [ "obj-55", 1 ],
					"hidden" : 1,
					"midpoints" : [ 1070.666626, 80.666664, 1070.666626, 80.666664 ],
					"source" : [ "obj-44", 1 ]
				}

			}
, 			{
				"patchline" : 				{
					"destination" : [ "obj-55", 0 ],
					"hidden" : 1,
					"midpoints" : [ 1058.666626, 80.666664, 943.666626, 80.666664 ],
					"source" : [ "obj-44", 0 ]
				}

			}
, 			{
				"patchline" : 				{
					"destination" : [ "obj-47", 0 ],
					"hidden" : 1,
					"midpoints" : [ 671.0, 20.583328, 519.0, 20.583328 ],
					"source" : [ "obj-46", 1 ]
				}

			}
, 			{
				"patchline" : 				{
					"destination" : [ "obj-93", 0 ],
					"hidden" : 1,
					"midpoints" : [ 519.0, 199.333328, 411.0, 199.333328 ],
					"source" : [ "obj-47", 0 ]
				}

			}
, 			{
				"patchline" : 				{
					"destination" : [ "obj-74", 0 ],
					"hidden" : 1,
					"midpoints" : [ 723.500061, 31.583328, 468.999969, 31.583328 ],
					"source" : [ "obj-48", 1 ]
				}

			}
, 			{
				"patchline" : 				{
					"destination" : [ "obj-62", 0 ],
					"hidden" : 1,
					"midpoints" : [ 940.5, 32.833332, 441.999969, 32.833332 ],
					"source" : [ "obj-5", 1 ]
				}

			}
, 			{
				"patchline" : 				{
					"destination" : [ "obj-52", 0 ],
					"hidden" : 1,
					"midpoints" : [ 442.5, 72.0, 507.5, 72.0, 507.5, 30.0, 572.5, 30.0 ],
					"order" : 1,
					"source" : [ "obj-53", 0 ]
				}

			}
, 			{
				"patchline" : 				{
					"destination" : [ "obj-55", 0 ],
					"hidden" : 1,
					"midpoints" : [ 442.5, 74.5, 943.666626, 74.5 ],
					"order" : 0,
					"source" : [ "obj-53", 0 ]
				}

			}
, 			{
				"patchline" : 				{
					"destination" : [ "obj-69", 0 ],
					"hidden" : 1,
					"midpoints" : [ 624.5, 240.5, 478.833313, 240.5 ],
					"source" : [ "obj-54", 0 ]
				}

			}
, 			{
				"patchline" : 				{
					"destination" : [ "obj-54", 0 ],
					"hidden" : 1,
					"midpoints" : [ 943.666626, 121.0, 872.5, 121.0, 872.5, 32.0, 624.5, 32.0 ],
					"source" : [ "obj-55", 0 ]
				}

			}
, 			{
				"patchline" : 				{
					"destination" : [ "obj-7", 0 ],
					"source" : [ "obj-57", 0 ]
				}

			}
, 			{
				"patchline" : 				{
					"destination" : [ "obj-61", 0 ],
					"hidden" : 1,
					"midpoints" : [ 441.999969, 105.666664, 507.0, 105.666664, 507.0, 63.666664, 571.999939, 63.666664 ],
					"order" : 1,
					"source" : [ "obj-62", 0 ]
				}

			}
, 			{
				"patchline" : 				{
					"destination" : [ "obj-64", 0 ],
					"hidden" : 1,
					"midpoints" : [ 441.999969, 108.166664, 981.666626, 108.166664 ],
					"order" : 0,
					"source" : [ "obj-62", 0 ]
				}

			}
, 			{
				"patchline" : 				{
					"destination" : [ "obj-70", 0 ],
					"hidden" : 1,
					"midpoints" : [ 623.999939, 195.333328, 596.5, 195.333328 ],
					"source" : [ "obj-63", 0 ]
				}

			}
, 			{
				"patchline" : 				{
					"destination" : [ "obj-63", 0 ],
					"hidden" : 1,
					"midpoints" : [ 981.666626, 154.666656, 872.333313, 154.666656, 872.333313, 64.333328, 623.999939, 64.333328 ],
					"source" : [ "obj-64", 0 ]
				}

			}
, 			{
				"patchline" : 				{
					"destination" : [ "obj-53", 0 ],
					"hidden" : 1,
					"source" : [ "obj-66", 0 ]
				}

			}
, 			{
				"patchline" : 				{
					"destination" : [ "obj-35", 0 ],
					"hidden" : 1,
					"midpoints" : [ 565.5, 1.0, 442.5, 1.0 ],
					"source" : [ "obj-67", 0 ]
				}

			}
, 			{
				"patchline" : 				{
					"destination" : [ "obj-62", 0 ],
					"hidden" : 1,
					"midpoints" : [ 657.5, 34.333332, 441.999969, 34.333332 ],
					"source" : [ "obj-68", 0 ]
				}

			}
, 			{
				"patchline" : 				{
					"destination" : [ "obj-7", 0 ],
					"source" : [ "obj-69", 0 ]
				}

			}
, 			{
				"patchline" : 				{
					"destination" : [ "obj-7", 0 ],
					"source" : [ "obj-70", 0 ]
				}

			}
, 			{
				"patchline" : 				{
					"destination" : [ "obj-76", 0 ],
					"hidden" : 1,
					"midpoints" : [ 776.000122, 42.583328, 418.999939, 42.583328 ],
					"source" : [ "obj-71", 1 ]
				}

			}
, 			{
				"patchline" : 				{
					"destination" : [ "obj-94", 0 ],
					"hidden" : 1,
					"midpoints" : [ 468.999969, 222.333328, 441.999969, 222.333328 ],
					"source" : [ "obj-74", 0 ]
				}

			}
, 			{
				"patchline" : 				{
					"destination" : [ "obj-95", 0 ],
					"hidden" : 1,
					"midpoints" : [ 418.999939, 245.333328, 472.999939, 245.333328 ],
					"source" : [ "obj-76", 0 ]
				}

			}
, 			{
				"patchline" : 				{
					"destination" : [ "obj-96", 0 ],
					"hidden" : 1,
					"midpoints" : [ 468.999969, 268.333313, 503.999908, 268.333313 ],
					"source" : [ "obj-78", 0 ]
				}

			}
, 			{
				"patchline" : 				{
					"destination" : [ "obj-11", 0 ],
					"hidden" : 1,
					"source" : [ "obj-8", 0 ]
				}

			}
, 			{
				"patchline" : 				{
					"destination" : [ "obj-97", 0 ],
					"hidden" : 1,
					"midpoints" : [ 519.0, 291.083313, 534.999878, 291.083313 ],
					"source" : [ "obj-80", 0 ]
				}

			}
, 			{
				"patchline" : 				{
					"destination" : [ "obj-98", 0 ],
					"hidden" : 1,
					"midpoints" : [ 569.0, 292.333313, 565.999878, 292.333313 ],
					"source" : [ "obj-82", 0 ]
				}

			}
, 			{
				"patchline" : 				{
					"destination" : [ "obj-99", 0 ],
					"hidden" : 1,
					"midpoints" : [ 619.0, 293.333313, 596.999878, 293.333313 ],
					"source" : [ "obj-84", 0 ]
				}

			}
, 			{
				"patchline" : 				{
					"destination" : [ "obj-100", 0 ],
					"hidden" : 1,
					"midpoints" : [ 569.0, 294.333313, 627.999878, 294.333313 ],
					"source" : [ "obj-86", 0 ]
				}

			}
, 			{
				"patchline" : 				{
					"destination" : [ "obj-78", 0 ],
					"hidden" : 1,
					"midpoints" : [ 828.500183, 53.583328, 468.999969, 53.583328 ],
					"source" : [ "obj-87", 1 ]
				}

			}
, 			{
				"patchline" : 				{
					"destination" : [ "obj-47", 0 ],
					"hidden" : 1,
					"source" : [ "obj-88", 0 ]
				}

			}
, 			{
				"patchline" : 				{
					"destination" : [ "obj-74", 0 ],
					"hidden" : 1,
					"source" : [ "obj-88", 1 ]
				}

			}
, 			{
				"patchline" : 				{
					"destination" : [ "obj-76", 0 ],
					"hidden" : 1,
					"source" : [ "obj-88", 2 ]
				}

			}
, 			{
				"patchline" : 				{
					"destination" : [ "obj-78", 0 ],
					"hidden" : 1,
					"source" : [ "obj-88", 3 ]
				}

			}
, 			{
				"patchline" : 				{
					"destination" : [ "obj-80", 0 ],
					"hidden" : 1,
					"source" : [ "obj-88", 4 ]
				}

			}
, 			{
				"patchline" : 				{
					"destination" : [ "obj-82", 0 ],
					"hidden" : 1,
					"source" : [ "obj-88", 5 ]
				}

			}
, 			{
				"patchline" : 				{
					"destination" : [ "obj-84", 0 ],
					"hidden" : 1,
					"source" : [ "obj-88", 6 ]
				}

			}
, 			{
				"patchline" : 				{
					"destination" : [ "obj-86", 0 ],
					"hidden" : 1,
					"source" : [ "obj-88", 7 ]
				}

			}
, 			{
				"patchline" : 				{
					"destination" : [ "obj-80", 0 ],
					"hidden" : 1,
					"midpoints" : [ 881.000244, 64.333328, 519.0, 64.333328 ],
					"source" : [ "obj-89", 1 ]
				}

			}
, 			{
				"patchline" : 				{
					"destination" : [ "obj-7", 0 ],
					"source" : [ "obj-9", 0 ]
				}

			}
, 			{
				"patchline" : 				{
					"destination" : [ "obj-82", 0 ],
					"hidden" : 1,
					"midpoints" : [ 933.500305, 53.583328, 569.0, 53.583328 ],
					"source" : [ "obj-90", 1 ]
				}

			}
, 			{
				"patchline" : 				{
					"destination" : [ "obj-84", 0 ],
					"hidden" : 1,
					"midpoints" : [ 986.000366, 42.583328, 619.0, 42.583328 ],
					"source" : [ "obj-91", 1 ]
				}

			}
, 			{
				"patchline" : 				{
					"destination" : [ "obj-88", 0 ],
					"hidden" : 1,
					"source" : [ "obj-92", 0 ]
				}

			}
, 			{
				"patchline" : 				{
					"destination" : [ "obj-7", 0 ],
					"midpoints" : [ 411.0, 441.5, 46.5, 441.5 ],
					"source" : [ "obj-93", 0 ]
				}

			}
, 			{
				"patchline" : 				{
					"destination" : [ "obj-7", 0 ],
					"midpoints" : [ 441.999969, 453.5, 46.5, 453.5 ],
					"source" : [ "obj-94", 0 ]
				}

			}
, 			{
				"patchline" : 				{
					"destination" : [ "obj-7", 0 ],
					"midpoints" : [ 472.999939, 465.5, 46.5, 465.5 ],
					"source" : [ "obj-95", 0 ]
				}

			}
, 			{
				"patchline" : 				{
					"destination" : [ "obj-7", 0 ],
					"midpoints" : [ 503.999908, 477.5, 46.5, 477.5 ],
					"source" : [ "obj-96", 0 ]
				}

			}
, 			{
				"patchline" : 				{
					"destination" : [ "obj-7", 0 ],
					"midpoints" : [ 534.999878, 489.5, 46.5, 489.5 ],
					"source" : [ "obj-97", 0 ]
				}

			}
, 			{
				"patchline" : 				{
					"destination" : [ "obj-7", 0 ],
					"midpoints" : [ 565.999878, 501.5, 46.5, 501.5 ],
					"source" : [ "obj-98", 0 ]
				}

			}
, 			{
				"patchline" : 				{
					"destination" : [ "obj-7", 0 ],
					"midpoints" : [ 596.999878, 513.5, 46.5, 513.5 ],
					"source" : [ "obj-99", 0 ]
				}

			}
 ],
		"dependency_cache" : [  ],
		"autosave" : 0
	}

}
