#N canvas 243 293 676 517 10;
#X obj 16 28 hsl 128 15 0 157 0 0 empty empty level -2 -8 0 10 -262144
-1 -1 2800 1;
#X floatatom 151 28 5 0 0 0 - - -, f 5;
#X obj 248 28 nbx 5 14 -1e+37 1e+37 0 0 empty empty offset 0 -8 0 10
-258113 -1 -1 0 256;
#X obj 13 71 - 127;
#X obj 13 100 * 0.6;
#X obj 13 168 +;
#X obj 80 127 t b f;
#X floatatom 205 28 5 0 0 0 dB - -, f 5;
#X obj 13 -13 inlet;
#X obj 13 206 outlet;
#X connect 0 0 1 0;
#X connect 0 0 3 0;
#X connect 2 0 6 0;
#X connect 3 0 4 0;
#X connect 4 0 5 0;
#X connect 5 0 7 0;
#X connect 5 0 9 0;
#X connect 6 0 5 0;
#X connect 6 1 5 1;
#X connect 8 0 0 0;
#X coords 0 -1 1 1 300 40 2 10 10;
