#N canvas 110 268 1206 514 10;
#X floatatom 13 13 5 0 0 3 channel - -, f 5;
#X obj 13 107 adc~ 1;
#X msg 13 78 set \$1;
#X obj 203 13 bng 15 250 50 0 empty empty noise 17 7 0 10 -262144 -1
-1;
#X obj 61 35 hsl 64 15 -72 6 0 0 empty empty empty -2 -8 0 10 -203904
-1 -1 5815 1;
#X msg 60 -15 0;
#X floatatom 58 53 5 0 0 1 dB - -, f 5;
#X obj 130 35 bng 15 250 50 0 empty empty 0 17 7 0 10 -203904 -1 -1
;
#X obj 195 136 dbtorms;
#X obj 175 218 -;
#X obj 115 137 loadbang;
#X msg 115 159 100;
#X obj 196 184 t b f;
#X obj 283 135 noise~;
#X obj 346 135 t b b;
#X obj 346 168 del 15;
#X msg 393 168 1 5;
#X msg 346 193 0 5;
#X obj 368 227 line~;
#X obj 285 256 *~;
#X obj 285 286 *~ 0.05;
#X obj 160 332 *~;
#X obj 148 458 outlet~;
#X msg 87 83 \$1 100;
#X obj 203 36 tgl 15 0 empty empty on/off 17 7 0 10 -262144 -1 -1 0
1;
#X obj 87 349 line~;
#X obj 148 406 *~;
#X obj 58 13 bng 15 250 50 0 empty empty open 17 7 0 10 -262130 -1
-1;
#X obj 109 13 tgl 15 0 empty empty play 17 7 0 10 -262130 -1 -1 0 1
;
#X obj 157 13 tgl 15 0 empty empty loop 17 7 0 10 -262130 -1 -1 0 1
;
#X obj 514 252 readsf~ 1;
#X obj 565 280 bang;
#X obj 565 315 f 0;
#X text 594 315 loop;
#X obj 514 77 openpanel;
#X obj 514 100 list prepend set open;
#X obj 514 124 list trim;
#X msg 514 148 open /Users/alainbonardi/Dropbox/ENSEIGNEMENT/PARIS8_MUSIQUE/SAMPLES/captationsInstruments/piano1_mono.wav
;
#X text 507 50 open;
#X obj 441 101 tgl 15 0 empty empty empty 17 7 0 10 -262144 -1 -1 0
1;
#X obj 441 133 t f b;
#X text 437 84 play;
#X obj 189 -18 inlet;
#X obj 92 -15 loadbang;
#X obj 257 442 writesf~ 1;
#X msg 332 93 open;
#X obj 268 36 tgl 15 0 empty empty empty 17 7 0 10 -228856 -1 -1 0
1;
#X text 315 15 source;
#X text 297 30 recording;
#X obj 268 13 bng 15 250 50 0 empty empty open 17 7 0 10 -228856 -1
-1;
#X connect 0 0 2 0;
#X connect 1 0 21 0;
#X connect 2 0 1 0;
#X connect 3 0 14 0;
#X connect 4 0 6 0;
#X connect 5 0 4 0;
#X connect 6 0 8 0;
#X connect 7 0 5 0;
#X connect 8 0 12 0;
#X connect 9 0 21 1;
#X connect 10 0 11 0;
#X connect 11 0 9 0;
#X connect 12 0 9 0;
#X connect 12 1 9 1;
#X connect 13 0 19 0;
#X connect 14 0 15 0;
#X connect 14 1 16 0;
#X connect 15 0 17 0;
#X connect 16 0 18 0;
#X connect 17 0 18 0;
#X connect 18 0 19 1;
#X connect 19 0 20 0;
#X connect 20 0 21 0;
#X connect 21 0 26 0;
#X connect 23 0 25 0;
#X connect 24 0 23 0;
#X connect 25 0 26 1;
#X connect 26 0 22 0;
#X connect 26 0 44 0;
#X connect 27 0 34 0;
#X connect 28 0 39 0;
#X connect 29 0 32 1;
#X connect 30 1 31 0;
#X connect 31 0 32 0;
#X connect 32 0 39 0;
#X connect 34 0 35 0;
#X connect 35 0 36 0;
#X connect 36 0 37 0;
#X connect 37 0 30 0;
#X connect 39 0 40 0;
#X connect 40 0 30 0;
#X connect 40 1 37 0;
#X connect 42 0 24 0;
#X connect 43 0 5 0;
#X connect 45 0 44 0;
#X connect 46 0 44 0;
#X connect 49 0 45 0;
#X coords 0 -1 1 1 350 60 2 10 10;
