#N canvas 22 184 640 545 10;
#X obj 17 27 hsl 128 15 0 157 0 0 empty empty level -2 -8 0 10 -258113
-1 -1 12700 1;
#X obj 14 -16 inlet;
#X obj 14 71 - 127;
#X obj 14 100 * 0.6;
#X floatatom 223 27 5 0 0 0 dB - -, f 5;
#X obj 151 27 nbx 5 14 -1e+37 1e+37 0 0 empty empty empty 0 -8 0 10
-258113 -1 -1 0 256;
#X msg 71 -16 127;
#X obj 71 -41 loadbang;
#X obj 14 187 outlet;
#X connect 0 0 2 0;
#X connect 0 0 5 0;
#X connect 1 0 0 0;
#X connect 2 0 3 0;
#X connect 3 0 4 0;
#X connect 3 0 8 0;
#X connect 6 0 0 0;
#X connect 7 0 6 0;
#X coords 0 -1 1 1 250 40 2 10 10;
