#N canvas 843 229 551 523 10;
#X obj 298 222 snapshot~;
#X obj 298 170 metro 100;
#X obj 77 267 vu 16 120 foo7_rcv vu-meter 60 0 0 10 -1 -355 1 0;
#X floatatom 76 420 6 0 0 0 - - -, f 6;
#X floatatom 87 398 6 0 0 0 - - -, f 6;
#X floatatom 87 237 7 -110 20 0 - - -, f 7;
#X obj 297 133 tgl 15 0 empty empty empty 17 7 0 10 -262144 -1 -1 1
1;
#X floatatom 301 331 7 -110 20 0 - - -, f 7;
#X obj 52 13 tgl 15 0 empty empty empty 17 7 0 10 -262144 -1 -1 1 1
;
#X obj 52 41 _fildesoi.input;
#X obj 301 355 rmstodb;
#X floatatom 288 453 5 0 0 0 - - -, f 5;
#X obj 301 277 abs;
#X obj 421 337 vsl 8 128 0 127 0 0 empty empty empty 0 -9 0 10 -4034
-1 -1 10376 1;
#X connect 0 0 2 0;
#X connect 0 0 12 0;
#X connect 1 0 0 0;
#X connect 2 0 3 0;
#X connect 2 1 4 0;
#X connect 5 0 2 1;
#X connect 6 0 1 0;
#X connect 7 0 10 0;
#X connect 8 0 9 0;
#X connect 9 0 0 0;
#X connect 10 0 11 0;
#X connect 10 0 13 0;
#X connect 12 0 7 0;
