#N canvas 332 250 513 521 10;
#X floatatom 13 13 5 0 0 3 channel - -;
#X obj 13 107 adc~ 1;
#X msg 13 78 set \$1;
#X obj 57 14 bng 15 250 50 0 empty empty test 17 7 0 10 -262144 -1
-1;
#X obj 112 14 hsl 64 15 -72 6 0 0 empty empty empty -2 -8 0 10 -262144
-1 -1 0 1;
#X msg 109 -14 0;
#X floatatom 109 32 5 0 0 1 dB - -;
#X obj 181 14 bng 15 250 50 0 empty empty 0 17 7 0 10 -262144 -1 -1
;
#X obj 194 136 dbtorms;
#X obj 174 218 -;
#X obj 114 137 loadbang;
#X msg 114 159 100;
#X obj 195 184 t b f;
#X obj 214 15 tgl 15 0 empty empty dc_filt. 17 7 0 10 -262144 -1 -1
0 1;
#X obj 283 135 noise~;
#X obj 346 135 t b b;
#X obj 346 168 del 15;
#X msg 393 168 1 5;
#X msg 346 193 0 5;
#X obj 368 227 line~;
#X obj 285 256 *~;
#X obj 285 286 *~ 0.05;
#X obj 160 332 *~;
#X obj 162 424 outlet~;
#X obj 338 442 biquad~;
#X connect 0 0 2 0;
#X connect 1 0 22 0;
#X connect 2 0 1 0;
#X connect 3 0 15 0;
#X connect 4 0 6 0;
#X connect 5 0 4 0;
#X connect 6 0 8 0;
#X connect 7 0 5 0;
#X connect 8 0 12 0;
#X connect 9 0 22 1;
#X connect 10 0 11 0;
#X connect 11 0 9 0;
#X connect 12 0 9 0;
#X connect 12 1 9 1;
#X connect 14 0 20 0;
#X connect 15 0 16 0;
#X connect 15 1 17 0;
#X connect 16 0 18 0;
#X connect 17 0 19 0;
#X connect 18 0 19 0;
#X connect 19 0 20 1;
#X connect 20 0 21 0;
#X connect 21 0 22 0;
#X coords 0 -1 1 1 300 60 2 10 10;
